<svg width="24" height="24" viewBox="0 0 24 24" fill="none" xmlns="http://www.w3.org/2000/svg">
<path fill-rule="evenodd" clip-rule="evenodd" d="M10.4992 12.726C10.163 12.3043 9.77815 11.9817 9.34717 11.7634C9.728 11.5316 10.056 11.2469 10.327 10.908C10.7838 10.3359 11.0155 9.61875 11.0155 8.77552C11.0155 8.07193 10.8298 7.42528 10.4626 6.85455C10.0966 6.28381 9.55182 5.82559 8.84301 5.49209C8.14911 5.16538 7.31291 5 6.36016 5H0.94043V19H6.60953C7.53789 19 8.36731 18.8305 9.07341 18.4971C9.79306 18.1581 10.3541 17.6836 10.739 17.0885C11.1253 16.4906 11.3218 15.8115 11.3218 15.0699C11.3218 14.2009 11.0453 13.4133 10.4992 12.7273V12.726ZM7.62056 10.1746C7.28581 10.4457 6.79655 10.584 6.16906 10.584H3.82444V7.48224H6.16906C6.79384 7.48224 7.28038 7.62457 7.61514 7.90655C7.93634 8.17633 8.09219 8.54915 8.09219 9.04262C8.09219 9.53608 7.93769 9.91836 7.62056 10.1746ZM3.82444 13.0676H6.34118C6.99984 13.0676 7.50671 13.2275 7.89026 13.557C8.25753 13.8728 8.43643 14.2918 8.43643 14.8395C8.43643 15.3871 8.27109 15.7735 7.92956 16.0622C7.57583 16.3618 7.06761 16.5137 6.41708 16.5137H3.82444V13.0676Z" fill="white"/>
<path fill-rule="evenodd" clip-rule="evenodd" d="M22.394 10.3847C21.9576 9.59567 21.3396 8.97343 20.5563 8.53691C19.7743 8.10038 18.8703 7.87939 17.8728 7.87939C16.8753 7.87939 15.9036 8.10715 15.1027 8.55587C14.3003 9.00595 13.6688 9.6526 13.227 10.4809C12.7851 11.3079 12.5615 12.2785 12.5615 13.3658C12.5615 14.453 12.7919 15.4251 13.2473 16.2507C13.7027 17.0776 14.3396 17.7283 15.142 18.1838C15.9429 18.6393 16.8618 18.8698 17.8742 18.8698C19.117 18.8698 20.1727 18.5539 21.013 17.9317C21.8533 17.3094 22.4414 16.4987 22.7626 15.524L22.7857 15.4549H20.3272L20.3123 15.4847C19.8393 16.4432 19.0194 16.9285 17.8728 16.9285C17.0746 16.9285 16.3915 16.675 15.8426 16.1774C15.3073 15.6908 14.9997 15.04 14.9278 14.2415H22.9673L22.9741 14.1968C23.0256 13.8755 23.0513 13.5122 23.0513 13.1177C23.0513 12.0928 22.8304 11.1737 22.394 10.3847ZM15.8806 10.5257C16.4037 10.058 17.042 9.82208 17.7766 9.82208C18.5884 9.82208 19.2782 10.062 19.8271 10.5365C20.3611 10.9974 20.6444 11.617 20.6688 12.3761H14.9509C15.0593 11.6048 15.3724 10.9825 15.8819 10.527L15.8806 10.5257Z" fill="white"/>
<path d="M15.1279 5.32123H20.4826V6.59015H15.1279V5.32123Z" fill="white"/>
</svg>
