<svg width="24" height="24" viewBox="0 0 24 24" fill="none" xmlns="http://www.w3.org/2000/svg">
<path fill-rule="evenodd" clip-rule="evenodd" d="M11.9984 15.4028C13.8741 15.4028 15.401 13.8763 15.401 11.9992C15.401 10.122 13.875 8.59552 11.9984 8.59552C10.1218 8.59552 8.5957 10.122 8.5957 11.9992C8.5957 13.8763 10.1218 15.4028 11.9984 15.4028ZM11.9984 9.88718C13.1632 9.88718 14.1106 10.8349 14.1106 12C14.1106 13.1652 13.1632 14.1128 11.9984 14.1128C10.8336 14.1128 9.88617 13.1652 9.88617 12C9.88617 10.8349 10.8336 9.88718 11.9984 9.88718Z" fill="white"/>
<path d="M16.6334 8.22836C16.6334 8.73444 16.2217 9.14542 15.7166 9.14542C15.2107 9.14542 14.7998 8.73444 14.7998 8.22836C14.7998 7.72227 15.2107 7.31128 15.7166 7.31128C16.2225 7.31128 16.6334 7.72227 16.6334 8.22836Z" fill="white"/>
<path fill-rule="evenodd" clip-rule="evenodd" d="M15.6499 5H8.34854C6.33141 5 4.69043 6.64147 4.69043 8.65919V15.3408C4.69043 17.3585 6.33141 19 8.34854 19H15.6499C17.667 19 19.308 17.3585 19.308 15.3408V8.65919C19.308 6.64147 17.667 5 15.6499 5ZM5.9809 8.65919C5.9809 7.35346 7.04319 6.29083 8.34854 6.29083H15.6499C16.9552 6.29083 18.0175 7.35346 18.0175 8.65919V15.3408C18.0175 16.6465 16.9552 17.7092 15.6499 17.7092H8.34854C7.04319 17.7092 5.9809 16.6465 5.9809 15.3408V8.65919Z" fill="white"/>
</svg>
