<svg width="24" height="24" viewBox="0 0 24 24" fill="none" xmlns="http://www.w3.org/2000/svg">
<path d="M4.90039 6.6258C4.90039 7.08021 5.06565 7.46212 5.39796 7.77065C5.73027 8.07919 6.16952 8.2339 6.68213 8.2339C7.19473 8.2339 7.61631 8.07919 7.94862 7.77065C8.28004 7.46212 8.44619 7.0917 8.44619 6.6258C8.44619 6.1599 8.28093 5.77178 7.94862 5.46325C7.61719 5.15471 7.20622 5 6.68213 5C6.15803 5 5.73027 5.15471 5.39796 5.46325C5.06653 5.77267 4.90039 6.17139 4.90039 6.6258Z" fill="white"/>
<path d="M8.16691 19V9.54055H5.17878V19H8.16691Z" fill="white"/>
<path d="M19.091 13.3888C19.091 12.1529 18.7658 11.1822 18.1144 10.4749C17.464 9.76769 16.5925 9.41406 15.5019 9.41406C14.8895 9.41406 14.3389 9.53342 13.8492 9.773C13.3596 10.0126 12.9698 10.3379 12.6808 10.7499V9.51397H9.82617V18.8329H12.6808V13.7725C12.6808 13.1492 12.8426 12.6648 13.1652 12.32C13.4877 11.9743 13.9226 11.8019 14.467 11.8019C15.0114 11.8019 15.4463 11.9752 15.7688 12.32C16.0914 12.6648 16.2532 13.1492 16.2532 13.7725V18.8329H19.091V13.3888Z" fill="white"/>
</svg>
