<svg width="479" height="91" viewBox="0 0 479 91" fill="none" xmlns="http://www.w3.org/2000/svg">
<path d="M89.59 56.4201C87.57 60.0401 86.56 64.2501 86.56 69.0501L94.01 72.7101V50.8701C92.26 52.4401 90.78 54.2801 89.59 56.4101V56.4201Z" fill="white"/>
<path d="M0 0V17.31H27.24V48.29C26.5 51.19 20.43 63.11 20.43 63.11C22.83 65.15 25.14 68.22 27.24 71.61C31.03 77.74 34.11 84.95 35.78 89.19V64.19C34.76 63.68 34.06 62.64 34.06 61.43C34.06 59.72 35.45 58.33 37.16 58.33C38.87 58.33 40.26 59.72 40.26 61.43C40.26 62.65 39.55 63.69 38.54 64.19V89.19C40.21 84.95 43.29 77.75 47.08 71.61C49.17 68.22 51.48 65.16 53.89 63.11C53.89 63.11 47.83 51.18 47.08 48.29V17.31H74.47L74.42 0H0Z" fill="white"/>
<path d="M131.59 37.67C129.61 34.18 126.81 31.44 123.19 29.46C119.57 27.48 115.36 26.49 110.56 26.49C105.76 26.49 101.67 27.48 98.05 29.46C96.57 30.27 95.22 31.23 94.01 32.32L93.92 17.31L93.81 0H74.4L74.45 17.31L74.68 89.15H94.01V54.16C94.01 52.06 94.47 50.18 95.4 48.54C96.33 46.9 97.59 45.63 99.19 44.75C100.79 43.87 102.64 43.42 104.75 43.42C107.78 43.42 110.29 44.41 112.27 46.39C114.25 48.37 115.24 50.96 115.24 54.16V89.15H134.57V49.87C134.57 45.24 133.58 41.18 131.6 37.68L131.59 37.67Z" fill="white"/>
<path d="M161.96 64.8701L205.92 64.7701C206.26 63.1701 206.49 61.7601 206.61 60.5401C206.74 59.3201 206.8 58.1601 206.8 57.0701C206.8 51.0901 205.47 45.7901 202.82 41.1501C200.17 36.5201 196.52 32.9001 191.89 30.2901C187.26 27.6801 181.91 26.3701 175.85 26.3701C169.79 26.3701 164.02 27.7601 159.05 30.5401C154.08 33.3201 150.14 37.1301 147.24 41.9701C145.46 44.9401 144.23 48.1601 143.54 51.6201H134.55V64.8901H143.47C144.15 68.5101 145.42 71.8801 147.3 75.0001C150.25 79.8801 154.31 83.7001 159.49 86.4301C164.67 89.1701 170.58 90.5401 177.24 90.5401C182.38 90.5401 187.09 89.6601 191.39 87.8901C195.68 86.1201 199.35 83.4701 202.38 79.9301L191.77 69.3201C189.92 71.4301 187.77 73.0101 185.33 74.0601C182.89 75.1101 180.15 75.6401 177.12 75.6401C173.84 75.6401 170.99 74.9501 168.59 73.5601C166.19 72.1701 164.34 70.1901 163.03 67.6201C162.6 66.7701 162.24 65.8501 161.95 64.8801M161.96 51.6001C162.22 50.7201 162.53 49.8801 162.91 49.1001C164.13 46.5701 165.86 44.6201 168.09 43.2301C170.32 41.8401 172.95 41.1501 175.98 41.1501C178.84 41.1501 181.26 41.7601 183.24 42.9801C185.22 44.2001 186.71 45.9701 187.72 48.2901C188.14 49.2601 188.48 50.3501 188.74 51.5401L161.95 51.6201L161.96 51.6001Z" fill="white"/>
<path d="M301.12 37.92C298.97 34.26 296.07 31.44 292.4 29.46C288.74 27.48 284.55 26.49 279.83 26.49C275.11 26.49 270.71 27.52 266.88 29.58C264.32 30.96 262.11 32.72 260.22 34.85C258.47 32.63 256.36 30.81 253.86 29.39C250.45 27.45 246.6 26.48 242.3 26.48C237.75 26.48 233.67 27.43 230.05 29.32C228.47 30.15 227.05 31.13 225.76 32.26V27.74H206.43V89.13H225.76V53.26C225.76 51.16 226.2 49.39 227.09 47.95C227.97 46.52 229.17 45.4 230.69 44.6C232.21 43.8 233.93 43.4 235.87 43.4C238.65 43.4 240.99 44.26 242.88 45.99C244.77 47.72 245.72 50.14 245.72 53.25V89.12H265.05V53.25C265.05 51.15 265.49 49.38 266.38 47.94C267.26 46.51 268.46 45.39 269.98 44.59C271.5 43.79 273.22 43.39 275.16 43.39C277.94 43.39 280.28 44.25 282.17 45.98C284.06 47.71 285.01 50.13 285.01 53.24V89.11H304.34V51.09C304.34 45.95 303.27 41.55 301.12 37.89V37.92Z" fill="white"/>
<path d="M322.31 78.52C322.35 78.98 322.41 79.44 322.48 79.88C322.41 79.43 322.34 78.98 322.31 78.52Z" fill="white"/>
<path d="M323.3 82.9399C323.2 82.6799 323.12 82.4199 323.03 82.1499C323.12 82.4099 323.2 82.6799 323.3 82.9399Z" fill="white"/>
<path d="M322.81 81.4098C322.71 81.0498 322.63 80.6798 322.56 80.2998C322.63 80.6698 322.71 81.0398 322.81 81.4098Z" fill="white"/>
<path d="M392.25 42.59C393.34 41.96 394.99 41.64 397.18 41.64C399.37 41.64 401.79 42.1 404.19 43.03C405.04 43.36 412.27 46.1 421.33 49.6V32.84C415.9 30.69 411.95 29.14 410.89 28.7C406.47 26.89 401.65 25.98 396.43 25.98C391.21 25.98 387.12 26.82 383.42 28.51C379.71 30.2 376.85 32.49 374.83 35.39C372.81 38.3 371.8 41.73 371.8 45.68C371.8 49.39 372.51 52.44 373.95 54.84C375.38 57.24 377.23 59.12 379.51 60.46C381.78 61.81 384.18 62.86 386.71 63.62C389.24 64.38 391.64 65.07 393.91 65.7C396.18 66.33 398.06 67.05 399.53 67.85C401 68.65 401.74 69.81 401.74 71.32C401.74 72.5 401.13 73.43 399.91 74.1C398.69 74.78 396.94 75.11 394.67 75.11C391.39 75.11 388.49 74.14 385.58 73.28C384.17 72.86 373.14 67.88 364 63.62V80.02C367.9 81.89 374.49 84.97 375.03 85.28C378.02 87.01 381.26 88.33 384.76 89.26C388.25 90.19 391.81 90.65 395.43 90.65C403.09 90.65 409.18 88.88 413.68 85.34C418.18 81.8 420.44 77.05 420.44 71.07C420.44 67.2 419.72 64.06 418.29 61.66C416.86 59.26 415.01 57.35 412.73 55.91C410.46 54.48 408.06 53.34 405.53 52.5C403 51.66 400.6 50.94 398.33 50.35C396.06 49.76 394.2 49.09 392.77 48.33C391.34 47.57 390.62 46.56 390.62 45.3C390.62 44.12 391.17 43.22 392.26 42.58L392.25 42.59Z" fill="white"/>
<path d="M349.01 27.75V32.82C347.35 31.25 345.44 29.93 343.26 28.88C339.93 27.28 336.21 26.48 332.08 26.48C326.44 26.48 321.41 27.87 316.99 30.65C312.57 33.43 309.07 37.22 306.51 42.02C303.94 46.82 302.66 52.29 302.66 58.44C302.66 64.59 303.94 70.06 306.51 74.86C309.08 79.66 312.57 83.45 316.99 86.23C321.41 89.01 326.44 90.4 332.08 90.4C336.21 90.4 339.95 89.6 343.32 88C345.49 86.97 347.38 85.69 349 84.15V89.13H367.95V27.74H349L349.01 27.75ZM345.97 68.87C345.41 69.48 344.8 70.01 344.15 70.49C343.92 70.66 343.67 70.82 343.43 70.98C343.35 71.03 343.26 71.09 343.18 71.14C342.95 71.28 342.71 71.41 342.47 71.54C342.36 71.59 342.26 71.64 342.15 71.69C341.74 71.88 341.33 72.05 340.9 72.2C340.74 72.25 340.59 72.32 340.43 72.36C340.25 72.42 340.06 72.46 339.87 72.51C339.64 72.57 339.42 72.62 339.18 72.67C339 72.71 338.83 72.74 338.65 72.77C338.38 72.82 338.1 72.85 337.81 72.88C337.66 72.9 337.51 72.91 337.36 72.93C336.92 72.96 336.47 72.99 336 72.99C334.69 72.99 333.45 72.83 332.27 72.52C331.39 72.28 330.54 71.96 329.72 71.54C329.45 71.4 329.18 71.25 328.92 71.1C327.34 70.15 326.02 68.95 324.96 67.48C324.61 66.99 324.28 66.47 323.99 65.92C323.73 65.43 323.5 64.92 323.3 64.41C323.2 64.15 323.12 63.88 323.03 63.62C322.95 63.37 322.87 63.13 322.8 62.88C322.7 62.52 322.62 62.15 322.55 61.77C322.52 61.63 322.5 61.49 322.48 61.35C322.41 60.9 322.34 60.45 322.31 59.99C322.27 59.49 322.23 59 322.23 58.48C322.23 55.62 322.84 53.09 324.06 50.9C324.34 50.4 324.64 49.94 324.96 49.5C325.15 49.23 325.37 48.99 325.57 48.73C325.69 48.59 325.81 48.43 325.94 48.3C326.23 47.98 326.53 47.69 326.85 47.4C326.9 47.36 326.95 47.31 326.99 47.27C327.35 46.95 327.72 46.66 328.12 46.38C328.41 46.18 328.68 45.97 328.99 45.79C329.25 45.64 329.51 45.49 329.78 45.36C330.32 45.09 330.87 44.86 331.45 44.67C332.03 44.48 332.62 44.33 333.23 44.21C334.15 44.04 335.12 43.95 336.13 43.95C337.14 43.95 338.11 44.04 339.03 44.21C339.64 44.32 340.24 44.48 340.81 44.67C341.38 44.86 341.94 45.09 342.48 45.36C342.75 45.49 343.01 45.64 343.27 45.79C343.79 46.1 344.27 46.43 344.73 46.8C345.65 47.53 346.45 48.38 347.13 49.36C347.47 49.85 347.79 50.36 348.07 50.91C348.32 51.4 348.54 51.91 348.74 52.43C348.83 52.68 348.91 52.93 348.99 53.18C349.07 53.44 349.15 53.71 349.22 53.98C349.31 54.33 349.39 54.68 349.45 55.04C349.48 55.21 349.51 55.37 349.53 55.54C349.6 55.97 349.66 56.41 349.69 56.85C349.73 57.38 349.77 57.92 349.77 58.48C349.77 62.69 348.51 66.17 345.98 68.9L345.97 68.87Z" fill="white"/>
<path d="M459.47 27.75V63.12C459.47 63.79 459.42 64.41 459.35 65.02C459.07 67.33 458.28 69.2 456.94 70.64C455.26 72.45 452.98 73.36 450.12 73.36C448.1 73.36 446.37 72.94 444.94 72.1C443.51 71.26 442.43 70.08 441.72 68.56C441.01 67.04 440.65 65.23 440.65 63.13V40.61C433.67 37.76 426.76 35 421.32 32.84V63.37C421.32 68.68 422.54 73.37 424.98 77.45C427.42 81.53 430.81 84.73 435.15 87.05C439.49 89.36 444.48 90.52 450.12 90.52C455.76 90.52 460.73 89.36 465.03 87.05C469.32 84.73 472.69 81.54 475.14 77.45C477.58 73.37 478.8 68.63 478.8 63.24V27.75H459.47Z" fill="white"/>
</svg>
