<svg width="208" height="40" viewBox="0 0 208 40" fill="none" xmlns="http://www.w3.org/2000/svg">
<g clip-path="url(#clip0_500_391)">
<path d="M139.78 27.6368C139.736 27.4811 139.702 27.3211 139.671 27.1568C139.702 27.3168 139.736 27.4768 139.78 27.6368Z" fill="white"/>
<path fill-rule="evenodd" clip-rule="evenodd" d="M9.02063 27.7492C9.02063 27.7492 11.6455 22.5946 11.9655 21.3405V7.94378H0.186035V0.458374H40.7525L40.839 14.4303V14.4346C41.3623 13.9632 41.946 13.5481 42.586 13.1978C44.1514 12.3416 45.9201 11.9135 47.9958 11.9135C50.0714 11.9135 51.892 12.3416 53.4574 13.1978C55.0228 14.0541 56.2336 15.2389 57.0898 16.7481L57.0941 16.7524C57.9504 18.2659 58.3785 20.0216 58.3785 22.0238V22.7805H62.2573C62.5557 21.2843 63.0876 19.8919 63.8573 18.6076C65.1113 16.5146 66.8151 14.867 68.9643 13.6649C71.1135 12.4627 73.6086 11.8616 76.2292 11.8616C78.8497 11.8616 81.1632 12.4281 83.1654 13.5568C85.1676 14.6854 86.7459 16.2508 87.8919 18.253C88.6888 19.6484 89.2097 21.1819 89.4531 22.8563V12.454H97.812V14.4086C98.3698 13.92 98.9839 13.4962 99.6671 13.1373C101.233 12.32 102.997 11.9092 104.964 11.9092C106.824 11.9092 108.489 12.3286 109.963 13.1676C111.044 13.7816 111.957 14.5686 112.714 15.5286C113.531 14.6076 114.487 13.8465 115.594 13.2497C117.25 12.3589 119.153 11.9135 121.194 11.9135C123.235 11.9135 125.047 12.3416 126.629 13.1978C128.216 14.0541 129.47 15.2735 130.4 16.8562V16.8432C131.117 18.0633 131.556 19.4736 131.72 21.074C131.979 20.2185 132.316 19.4037 132.731 18.6292C133.838 16.5535 135.351 14.9146 137.263 13.7124C139.174 12.5103 141.349 11.9092 143.788 11.9092C145.574 11.9092 147.183 12.2551 148.623 12.947C149.565 13.4011 150.391 13.9719 151.109 14.6508V12.4584L151.105 12.454H159.3V28.8703C162.96 30.5551 166.355 31.9777 166.923 32.147C167.042 32.1821 167.161 32.2177 167.28 32.2533C168.42 32.5944 169.57 32.9384 170.854 32.9384C171.836 32.9384 172.593 32.7957 173.12 32.5016C173.648 32.2119 173.911 31.8097 173.911 31.2995C173.911 30.6465 173.591 30.1449 172.956 29.7989C172.32 29.453 171.507 29.1416 170.525 28.8692C169.544 28.5968 168.506 28.2984 167.412 27.9697C166.318 27.6411 165.28 27.187 164.298 26.6032C163.313 26.0238 162.513 25.2108 161.894 24.173C161.271 23.1351 160.964 21.8162 160.964 20.2119C160.964 18.5038 161.401 17.0205 162.275 15.7622C163.148 14.5081 164.385 13.5178 165.989 12.787C167.589 12.0562 169.358 11.693 171.615 11.693C173.873 11.693 175.957 12.0865 177.868 12.8692C178.203 13.0083 180.337 13.8529 182.378 14.6605V14.6595L182.989 14.902L184.5 15.5L184.5 15.5039C186.413 16.2677 188.568 17.1335 190.737 18.0195V27.7578C190.737 28.6659 190.893 29.4486 191.2 30.1059C191.507 30.7632 191.974 31.2735 192.593 31.6368C193.211 32 193.959 32.1816 194.833 32.1816C196.069 32.1816 197.055 31.7881 197.782 31.0054C198.361 30.3827 198.703 29.5741 198.824 28.5751C198.854 28.3113 198.876 28.0432 198.876 27.7535V12.4584H207.235V27.8054C207.235 30.1362 206.707 32.1859 205.652 33.9503C204.593 35.7189 203.135 37.0984 201.28 38.1016C199.421 39.1005 197.271 39.6022 194.833 39.6022C192.394 39.6022 190.236 39.1005 188.359 38.1016C186.482 37.0984 185.016 35.7146 183.961 33.9503C182.906 32.1859 182.378 30.1578 182.378 27.8616V22.3514C179.819 21.2967 177.21 20.093 175.87 19.4744C175.378 19.2474 175.056 19.0991 174.971 19.0659C173.933 18.6638 172.887 18.4649 171.94 18.4649C170.993 18.4649 170.279 18.6032 169.808 18.8757L169.812 18.8713C169.341 19.1481 169.103 19.5373 169.103 20.0476C169.103 20.5924 169.414 21.0292 170.033 21.3578C170.651 21.6865 171.455 21.9762 172.437 22.2313C173.418 22.4865 174.456 22.7978 175.55 23.1611C176.644 23.5243 177.682 24.0173 178.664 24.6357C179.65 25.2584 180.45 26.0843 181.068 27.1222C181.687 28.16 181.998 29.5178 181.998 31.1913C181.998 33.7773 181.021 35.8313 179.075 37.3622C177.129 38.893 174.495 39.6584 171.183 39.6584C169.617 39.6584 168.078 39.4595 166.569 39.0573C165.055 38.6551 163.654 38.0843 162.361 37.3362C162.267 37.2824 161.898 37.121 161.381 36.8947C160.811 36.6452 160.06 36.3168 159.3 35.9669V39.0011H151.105V36.8476C150.404 37.5135 149.587 38.067 148.649 38.5124C147.191 39.2043 145.574 39.5503 143.788 39.5503C141.349 39.5503 139.174 38.9492 137.263 37.747C135.351 36.5448 133.842 34.9059 132.731 32.8303C132.354 32.1263 132.041 31.3891 131.793 30.6184V38.9924H123.434V23.4811C123.434 22.1362 123.023 21.0897 122.205 20.3416C121.388 19.5935 120.376 19.2216 119.174 19.2216C118.335 19.2216 117.591 19.3946 116.934 19.7405C116.277 20.0865 115.758 20.5708 115.377 21.1892C114.993 21.8119 114.802 22.5773 114.802 23.4854V38.9967H106.443V23.4854C106.443 22.1405 106.033 21.0941 105.215 20.3459C104.398 19.5978 103.386 19.2259 102.184 19.2259C101.345 19.2259 100.601 19.3989 99.9439 19.7449C99.2866 20.0908 98.7677 20.5751 98.3871 21.1935C98.0023 21.8162 97.812 22.5816 97.812 23.4897V39.0011H89.4531V27.2612C89.3983 27.6308 89.3247 28.0327 89.2324 28.467L70.2228 28.5103L70.2184 28.5146C70.3438 28.9341 70.4995 29.3319 70.6854 29.6995C71.2519 30.8108 72.0519 31.667 73.0897 32.2681C74.1276 32.8692 75.36 33.1676 76.7784 33.1676C78.0886 33.1676 79.2735 32.9384 80.3286 32.4843C81.3838 32.0303 82.3135 31.347 83.1135 30.4346L87.7016 35.0227C86.3913 36.5535 84.8043 37.6995 82.9492 38.4649C81.0897 39.2303 79.053 39.6108 76.8303 39.6108C73.9503 39.6108 71.3946 39.0184 69.1546 37.8335C66.9146 36.653 65.1589 35.0011 63.8832 32.8908C63.0703 31.5416 62.5211 30.0843 62.227 28.5189H58.3785V39.0097H50.0196V23.8789C50.0196 22.4951 49.5914 21.3751 48.7352 20.5189C47.879 19.6627 46.7936 19.2346 45.4833 19.2346C44.5709 19.2346 43.7709 19.4292 43.079 19.8097C42.3871 20.1903 41.8423 20.7395 41.4401 21.4486C41.0379 22.1578 40.839 22.9708 40.839 23.8789V39.0097H32.4801L32.3825 7.94378H20.545V21.3405C20.8693 22.5903 23.4898 27.7492 23.4898 27.7492C22.4477 28.6357 21.4487 29.9589 20.545 31.4249C18.906 34.08 17.5741 37.1935 16.852 39.027V28.2162C17.2887 28 17.5958 27.5503 17.5958 27.0227C17.5958 26.2832 16.9947 25.6822 16.2552 25.6822C15.5158 25.6822 14.9147 26.2832 14.9147 27.0227C14.9147 27.5459 15.2174 27.9957 15.6585 28.2162V39.027C14.9363 37.1935 13.6044 34.0757 11.9655 31.4249C11.0574 29.9589 10.0585 28.6313 9.02063 27.7492ZM139.977 28.262C139.974 28.2536 139.971 28.2453 139.968 28.2369C139.966 28.2296 139.963 28.2223 139.961 28.215C139.971 28.2429 139.981 28.2706 139.991 28.2984C139.972 28.2474 139.954 28.1955 139.937 28.1436L139.898 28.0269C139.897 28.0215 139.895 28.0162 139.893 28.0108C139.888 27.9947 139.882 27.9787 139.877 27.9627L139.859 27.9065C139.831 27.8207 139.804 27.7366 139.78 27.6497C139.736 27.494 139.702 27.334 139.671 27.1697C139.658 27.1092 139.65 27.0486 139.641 26.9881C139.611 26.7935 139.581 26.5989 139.568 26.4L139.567 26.3885C139.55 26.1763 139.533 25.9679 139.533 25.747C139.533 24.5103 139.797 23.4162 140.324 22.4692C140.445 22.253 140.575 22.054 140.714 21.8638C140.763 21.7937 140.817 21.7283 140.871 21.663L140.873 21.6607C140.893 21.6361 140.913 21.6115 140.933 21.5866C140.948 21.5682 140.963 21.5496 140.977 21.5308C140.994 21.5113 141.011 21.4909 141.028 21.4704C141.063 21.4271 141.099 21.383 141.137 21.3449C141.263 21.2065 141.393 21.0811 141.531 20.9557C141.552 20.9387 141.573 20.9176 141.59 20.9004L141.591 20.8997C141.747 20.7613 141.907 20.6357 142.08 20.5146C142.117 20.4892 142.153 20.4635 142.189 20.4378C142.275 20.376 142.362 20.3144 142.456 20.2594C142.569 20.1946 142.681 20.1297 142.798 20.0735C143.031 19.9567 143.269 19.8573 143.52 19.7751C143.771 19.693 144.026 19.6281 144.29 19.5762C144.688 19.5027 145.107 19.4638 145.544 19.4638C145.981 19.4638 146.4 19.5027 146.798 19.5762C147.062 19.6238 147.321 19.693 147.568 19.7751C147.814 19.8573 148.056 19.9567 148.29 20.0735C148.407 20.1297 148.519 20.1946 148.631 20.2594C148.856 20.3935 149.064 20.5362 149.263 20.6962C149.661 21.0119 150.007 21.3794 150.301 21.8032C150.448 22.0151 150.586 22.2357 150.707 22.4735C150.815 22.6854 150.91 22.9059 150.997 23.1308C151.036 23.2389 151.07 23.347 151.105 23.4551C151.14 23.5676 151.174 23.6843 151.204 23.8011C151.243 23.9524 151.278 24.1038 151.304 24.2594L151.309 24.2882C151.32 24.3512 151.331 24.4118 151.338 24.4757C151.369 24.6616 151.395 24.8519 151.408 25.0422C151.425 25.2713 151.442 25.5049 151.442 25.747C151.442 27.5676 150.897 29.0724 149.803 30.253L149.799 30.24C149.557 30.5038 149.293 30.733 149.012 30.9405C148.934 30.9978 148.852 31.0524 148.77 31.1065L148.701 31.1524L148.674 31.1693L148.622 31.2027L148.592 31.2216C148.493 31.2821 148.389 31.3384 148.285 31.3946C148.238 31.4162 148.195 31.4378 148.147 31.4594C147.97 31.5416 147.792 31.6151 147.607 31.68C147.578 31.6889 147.55 31.6993 147.522 31.7097C147.507 31.7154 147.492 31.7211 147.477 31.7265C147.453 31.7351 147.428 31.743 147.403 31.7492C147.349 31.7671 147.293 31.7809 147.237 31.7949C147.212 31.8011 147.186 31.8074 147.161 31.814C147.062 31.84 146.967 31.8616 146.863 31.8832C146.785 31.9005 146.711 31.9135 146.634 31.9265C146.517 31.9481 146.396 31.9611 146.27 31.974C146.238 31.9784 146.205 31.9816 146.173 31.9848C146.15 31.9871 146.127 31.9894 146.104 31.9921L146.076 31.9957C145.885 32.0086 145.691 32.0216 145.488 32.0216C144.921 32.0216 144.385 31.9524 143.875 31.8184C143.494 31.7146 143.127 31.5762 142.772 31.3946C142.655 31.334 142.538 31.2692 142.426 31.2043C141.743 30.7935 141.172 30.2746 140.714 29.6389C140.562 29.427 140.42 29.2021 140.294 28.9643C140.182 28.7524 140.082 28.5319 139.996 28.3113C139.989 28.295 139.983 28.2785 139.977 28.262ZM70.6378 21.6908C70.4735 22.0281 70.3394 22.3914 70.227 22.7719L70.2227 22.7805L81.8076 22.746C81.6951 22.2314 81.5481 21.76 81.3665 21.3405C80.9297 20.3373 80.2854 19.5719 79.4292 19.0443C78.573 18.5168 77.5265 18.253 76.2897 18.253C74.9794 18.253 73.8422 18.5514 72.8778 19.1524C71.9135 19.7535 71.1654 20.5968 70.6378 21.6908Z" fill="white"/>
</g>
<defs>
<clipPath id="clip0_500_391">
<rect width="208" height="40" fill="white"/>
</clipPath>
</defs>
</svg>
