<svg width="210" height="48" viewBox="0 0 210 48" fill="none" xmlns="http://www.w3.org/2000/svg">
<path d="M38.9275 24.8303C38.0539 26.3957 37.6172 28.2162 37.6172 30.2919L40.8388 31.8746V22.4303C40.0821 23.1092 39.4421 23.9049 38.9275 24.8259V24.8303Z" fill="white"/>
<path d="M0.186035 8.45837V15.9438H11.9655V29.3405C11.6455 30.5946 9.02063 35.7492 9.02063 35.7492C10.0585 36.6313 11.0574 37.9589 11.9655 39.4249C13.6044 42.0757 14.9363 45.1935 15.6585 47.027V36.2162C15.2174 35.9957 14.9147 35.5459 14.9147 35.0227C14.9147 34.2832 15.5158 33.6822 16.2552 33.6822C16.9947 33.6822 17.5958 34.2832 17.5958 35.0227C17.5958 35.5503 17.2887 36 16.852 36.2162V47.027C17.5741 45.1935 18.906 42.08 20.545 39.4249C21.4487 37.9589 22.4477 36.6357 23.4898 35.7492C23.4898 35.7492 20.8693 30.5903 20.545 29.3405V15.9438H32.3893L32.3677 8.45837H0.186035Z" fill="white"/>
<path d="M57.0897 24.7481C56.2335 23.2389 55.0227 22.0541 53.4573 21.1978C51.8919 20.3416 50.0713 19.9135 47.9956 19.9135C45.92 19.9135 44.1513 20.3416 42.5859 21.1978C41.9459 21.5481 41.3621 21.9632 40.8389 22.4346L40.8 15.9438L40.7524 8.45837H32.3589L32.3805 15.9438L32.48 47.0097H40.8389V31.8789C40.8389 30.9708 41.0378 30.1578 41.44 29.4486C41.8421 28.7395 42.387 28.1903 43.0789 27.8097C43.7708 27.4292 44.5708 27.2346 45.4832 27.2346C46.7935 27.2346 47.8789 27.6627 48.7351 28.5189C49.5913 29.3751 50.0194 30.4951 50.0194 31.8789V47.0097H58.3783V30.0238C58.3783 28.0216 57.9502 26.2659 57.094 24.7524L57.0897 24.7481Z" fill="white"/>
<path d="M70.2226 36.5103L89.2323 36.467C89.3794 35.7751 89.4788 35.1654 89.5307 34.6378C89.5869 34.1103 89.6129 33.6087 89.6129 33.1373C89.6129 30.5514 89.0377 28.2595 87.8918 26.253C86.7458 24.2508 85.1675 22.6854 83.1653 21.5568C81.1631 20.4281 78.8496 19.8616 76.2291 19.8616C73.6085 19.8616 71.1134 20.4627 68.9642 21.6649C66.815 22.867 65.1113 24.5146 63.8572 26.6076C63.0875 27.8919 62.5556 29.2843 62.2572 30.7806H58.3696V36.5189H62.2269C62.521 38.0843 63.0702 39.5416 63.8831 40.8908C65.1588 43.0011 66.9145 44.653 69.1545 45.8335C71.3945 47.0184 73.9502 47.6108 76.8302 47.6108C79.0529 47.6108 81.0896 47.2303 82.9491 46.4649C84.8042 45.6995 86.3913 44.5535 87.7015 43.0227L83.1134 38.4346C82.3134 39.347 81.3837 40.0303 80.3285 40.4843C79.2734 40.9384 78.0886 41.1676 76.7783 41.1676C75.3599 41.1676 74.1275 40.8692 73.0896 40.2681C72.0518 39.667 71.2518 38.8108 70.6853 37.6995C70.4994 37.3319 70.3437 36.9341 70.2183 36.5146M70.2269 30.7719C70.3394 30.3914 70.4734 30.0281 70.6377 29.6908C71.1653 28.5968 71.9134 27.7535 72.8777 27.1524C73.8421 26.5514 74.9794 26.253 76.2896 26.253C77.5264 26.253 78.5729 26.5168 79.4291 27.0443C80.2853 27.5719 80.9296 28.3373 81.3664 29.3406C81.548 29.76 81.695 30.2314 81.8075 30.746L70.2226 30.7806L70.2269 30.7719Z" fill="white"/>
<path d="M130.4 24.8562C129.47 23.2735 128.216 22.054 126.629 21.1978C125.046 20.3416 123.235 19.9135 121.193 19.9135C119.152 19.9135 117.25 20.3589 115.593 21.2497C114.486 21.8465 113.531 22.6076 112.713 23.5286C111.957 22.5686 111.044 21.7816 109.963 21.1676C108.489 20.3286 106.824 19.9092 104.964 19.9092C102.997 19.9092 101.232 20.32 99.6669 21.1373C98.9837 21.4962 98.3696 21.92 97.8118 22.4086V20.454H89.4529V47.0011H97.8118V31.4897C97.8118 30.5816 98.0021 29.8162 98.3869 29.1935C98.7675 28.5751 99.2864 28.0908 99.9437 27.7449C100.601 27.3989 101.345 27.2259 102.184 27.2259C103.386 27.2259 104.398 27.5978 105.215 28.3459C106.032 29.094 106.443 30.1405 106.443 31.4854V46.9967H114.802V31.4854C114.802 30.5773 114.992 29.8119 115.377 29.1892C115.758 28.5708 116.277 28.0865 116.934 27.7405C117.591 27.3946 118.335 27.2216 119.174 27.2216C120.376 27.2216 121.388 27.5935 122.205 28.3416C123.023 29.0897 123.433 30.1362 123.433 31.4811V46.9924H131.792V30.5513C131.792 28.3286 131.33 26.4259 130.4 24.8432V24.8562Z" fill="white"/>
<path d="M139.563 34.387C139.581 34.5859 139.606 34.7849 139.637 34.9751C139.606 34.7805 139.576 34.5859 139.563 34.387Z" fill="white"/>
<path d="M139.991 36.2984C139.948 36.1859 139.913 36.0735 139.875 35.9568C139.913 36.0692 139.948 36.1859 139.991 36.2984Z" fill="white"/>
<path d="M139.779 35.6368C139.736 35.4811 139.702 35.3211 139.671 35.1568C139.702 35.3168 139.736 35.4768 139.779 35.6368Z" fill="white"/>
<path d="M169.808 26.8757C170.279 26.6032 170.992 26.4649 171.94 26.4649C172.887 26.4649 173.933 26.6638 174.971 27.0659C175.338 27.2086 178.465 28.3935 182.383 29.907V22.6594C180.035 21.7297 178.327 21.0594 177.868 20.8692C175.957 20.0865 173.872 19.693 171.615 19.693C169.358 19.693 167.589 20.0562 165.989 20.787C164.385 21.5178 163.148 22.5081 162.275 23.7622C161.401 25.0205 160.964 26.5038 160.964 28.2119C160.964 29.8162 161.271 31.1351 161.894 32.173C162.513 33.2108 163.312 34.0238 164.298 34.6032C165.28 35.187 166.318 35.6411 167.412 35.9697C168.506 36.2984 169.544 36.5967 170.525 36.8692C171.507 37.1416 172.32 37.453 172.956 37.7989C173.591 38.1449 173.911 38.6465 173.911 39.2994C173.911 39.8097 173.648 40.2119 173.12 40.5016C172.592 40.7957 171.836 40.9384 170.854 40.9384C169.436 40.9384 168.182 40.5189 166.923 40.147C166.314 39.9654 163.265 38.5946 159.312 36.7524V43.8443C160.999 44.653 162.128 45.2022 162.361 45.3362C163.654 46.0843 165.055 46.6551 166.569 47.0573C168.078 47.4594 169.617 47.6584 171.183 47.6584C174.495 47.6584 177.129 46.893 179.075 45.3622C181.021 43.8313 181.998 41.7773 181.998 39.1913C181.998 37.5178 181.687 36.16 181.068 35.1222C180.45 34.0843 179.65 33.2584 178.664 32.6357C177.682 32.0173 176.644 31.5243 175.55 31.1611C174.456 30.7978 173.418 30.4865 172.437 30.2313C171.455 29.9762 170.651 29.6865 170.033 29.3578C169.414 29.0292 169.103 28.5924 169.103 28.0476C169.103 27.5373 169.341 27.1481 169.812 26.8713L169.808 26.8757Z" fill="white"/>
<path d="M155.693 42.1233C155.693 42.1233 155.667 42.1103 155.654 42.106C155.667 42.1103 155.68 42.1189 155.693 42.1233Z" fill="white"/>
<path d="M151.109 20.4584V22.6508C150.391 21.9719 149.565 21.4011 148.623 20.947C147.183 20.2551 145.574 19.9092 143.788 19.9092C141.349 19.9092 139.174 20.5103 137.263 21.7124C135.351 22.9146 133.838 24.5535 132.731 26.6292C131.619 28.7049 131.066 31.0703 131.066 33.7297C131.066 36.3892 131.619 38.7546 132.731 40.8303C133.842 42.9059 135.351 44.5449 137.263 45.747C139.174 46.9492 141.349 47.5503 143.788 47.5503C145.574 47.5503 147.191 47.2043 148.649 46.5124C149.587 46.067 150.404 45.5135 151.105 44.8476V47.0011H159.299V20.454H151.105L151.109 20.4584ZM149.799 38.24C149.557 38.5038 149.293 38.733 149.012 38.9405C148.912 39.014 148.804 39.0832 148.701 39.1524C148.666 39.174 148.627 39.2 148.592 39.2216C148.493 39.2822 148.389 39.3384 148.285 39.3946C148.238 39.4162 148.195 39.4378 148.147 39.4594C147.97 39.5416 147.792 39.6151 147.606 39.68C147.537 39.7016 147.472 39.7319 147.403 39.7492C147.325 39.7751 147.243 39.7924 147.161 39.814C147.062 39.84 146.966 39.8616 146.863 39.8832C146.785 39.9005 146.711 39.9135 146.633 39.9265C146.517 39.9481 146.396 39.9611 146.27 39.974C146.205 39.9827 146.141 39.987 146.076 39.9957C145.885 40.0086 145.691 40.0216 145.488 40.0216C144.921 40.0216 144.385 39.9524 143.875 39.8184C143.494 39.7146 143.126 39.5762 142.772 39.3946C142.655 39.334 142.538 39.2692 142.426 39.2043C141.743 38.7935 141.172 38.2746 140.713 37.6389C140.562 37.427 140.419 37.2022 140.294 36.9643C140.182 36.7524 140.082 36.5319 139.996 36.3113C139.952 36.1989 139.918 36.0822 139.879 35.9697C139.844 35.8616 139.81 35.7578 139.779 35.6497C139.736 35.494 139.702 35.334 139.671 35.1697C139.658 35.1092 139.65 35.0486 139.641 34.9881C139.611 34.7935 139.581 34.5989 139.568 34.4C139.55 34.1838 139.533 33.9719 139.533 33.747C139.533 32.5103 139.797 31.4162 140.324 30.4692C140.445 30.253 140.575 30.054 140.713 29.8638C140.796 29.747 140.891 29.6432 140.977 29.5308C141.029 29.4703 141.081 29.4011 141.137 29.3449C141.263 29.2065 141.392 29.0811 141.531 28.9557C141.552 28.9384 141.574 28.9167 141.591 28.8995C141.747 28.7611 141.907 28.6357 142.08 28.5146C142.205 28.4281 142.322 28.3373 142.456 28.2594C142.569 28.1946 142.681 28.1297 142.798 28.0735C143.031 27.9567 143.269 27.8573 143.52 27.7751C143.771 27.693 144.026 27.6281 144.29 27.5762C144.688 27.5027 145.107 27.4638 145.544 27.4638C145.981 27.4638 146.4 27.5027 146.798 27.5762C147.062 27.6238 147.321 27.693 147.568 27.7751C147.814 27.8573 148.056 27.9567 148.29 28.0735C148.406 28.1297 148.519 28.1946 148.631 28.2594C148.856 28.3935 149.064 28.5362 149.263 28.6962C149.661 29.0119 150.006 29.3794 150.301 29.8032C150.448 30.0151 150.586 30.2357 150.707 30.4735C150.815 30.6854 150.91 30.9059 150.997 31.1308C151.036 31.2389 151.07 31.347 151.105 31.4551C151.139 31.5676 151.174 31.6843 151.204 31.8011C151.243 31.9524 151.278 32.1038 151.304 32.2594C151.317 32.333 151.33 32.4022 151.338 32.4757C151.369 32.6616 151.395 32.8519 151.408 33.0422C151.425 33.2713 151.442 33.5049 151.442 33.747C151.442 35.5676 150.897 37.0724 149.803 38.253L149.799 38.24Z" fill="white"/>
<path d="M198.876 20.4584V35.7535C198.876 36.0432 198.854 36.3113 198.824 36.5751C198.703 37.574 198.361 38.3827 197.782 39.0054C197.055 39.7881 196.069 40.1816 194.832 40.1816C193.959 40.1816 193.211 40 192.592 39.6368C191.974 39.2735 191.507 38.7632 191.2 38.1059C190.893 37.4486 190.737 36.6659 190.737 35.7578V26.0195C187.719 24.787 184.731 23.5935 182.378 22.6595V35.8616C182.378 38.1578 182.906 40.1859 183.961 41.9503C185.016 43.7146 186.482 45.0984 188.359 46.1016C190.236 47.1005 192.394 47.6022 194.832 47.6022C197.271 47.6022 199.421 47.1005 201.28 46.1016C203.135 45.0984 204.592 43.7189 205.652 41.9503C206.707 40.1859 207.235 38.1362 207.235 35.8054V20.4584H198.876Z" fill="white"/>
</svg>
