<svg width="166" height="25" viewBox="0 0 166 25" fill="none" xmlns="http://www.w3.org/2000/svg">
<g clip-path="url(#clip0_305_140)">
<path d="M38.5067 24.1098V1.47561H43.562V24.1098H38.5067ZM31.3906 5.60569V1.15041H50.6781V5.60569H31.3906Z" fill="white"/>
<path d="M63.3863 24.1098V15.1016C63.3863 14.2778 63.1287 13.6165 62.6135 13.1179C62.1197 12.5976 61.4865 12.3374 60.7137 12.3374C60.177 12.3374 59.7048 12.4566 59.2969 12.6951C58.8891 12.9119 58.5671 13.2371 58.3309 13.6707C58.0948 14.0827 57.9768 14.5596 57.9768 15.1016L56.077 14.1585C56.077 12.9228 56.3346 11.8388 56.8498 10.9065C57.365 9.97425 58.0841 9.25881 59.0071 8.76016C59.9302 8.23984 60.9928 7.97967 62.1949 7.97967C63.4185 7.97967 64.4918 8.23984 65.4148 8.76016C66.3379 9.25881 67.0462 9.96342 67.54 10.874C68.0552 11.7629 68.3128 12.8035 68.3128 13.9959V24.1098H63.3863ZM53.0502 24.1098V0.5H57.9768V24.1098H53.0502Z" fill="white"/>
<path d="M79.2047 24.4675C77.5089 24.4675 75.9955 24.1206 74.6646 23.4268C73.3552 22.7114 72.3248 21.7249 71.5734 20.4675C70.8221 19.21 70.4465 17.79 70.4465 16.2073C70.4465 14.6247 70.8114 13.2154 71.5413 11.9797C72.2926 10.7222 73.3015 9.73577 74.568 9.02033C75.8345 8.30488 77.262 7.94715 78.8505 7.94715C80.3961 7.94715 81.7592 8.2832 82.9398 8.95528C84.1205 9.62737 85.0435 10.5596 85.709 11.752C86.3959 12.9444 86.7394 14.3103 86.7394 15.8496C86.7394 16.1314 86.7179 16.435 86.675 16.7602C86.6535 17.0637 86.5998 17.4214 86.514 17.8333L73.0224 17.8659V14.4512L84.421 14.4187L82.2958 15.8496C82.2744 14.939 82.1349 14.1911 81.8773 13.6057C81.6197 12.9986 81.2333 12.5434 80.7181 12.2398C80.2244 11.9146 79.6126 11.752 78.8827 11.752C78.1099 11.752 77.4337 11.9363 76.8541 12.3049C76.296 12.6518 75.856 13.1504 75.534 13.8008C75.2334 14.4512 75.0832 15.2425 75.0832 16.1748C75.0832 17.107 75.2442 17.9092 75.5662 18.5813C75.9096 19.2317 76.3819 19.7412 76.9829 20.1098C77.6055 20.4566 78.3353 20.6301 79.1725 20.6301C79.9453 20.6301 80.6429 20.5 81.2655 20.2398C81.888 19.958 82.4354 19.5461 82.9076 19.0041L85.6124 21.7358C84.8396 22.6463 83.9058 23.3293 82.811 23.7846C81.7163 24.2398 80.5141 24.4675 79.2047 24.4675Z" fill="white"/>
<path d="M89.1173 24.1098V8.30488H94.0438V24.1098H89.1173ZM99.1313 24.1098V14.874C99.1313 14.0718 98.8845 13.4539 98.3908 13.0203C97.9185 12.565 97.3282 12.3374 96.6198 12.3374C96.1261 12.3374 95.686 12.4458 95.2996 12.6626C94.9132 12.8577 94.602 13.1396 94.3658 13.5081C94.1512 13.8767 94.0438 14.332 94.0438 14.874L92.1441 14.0285C92.1441 12.771 92.4124 11.6978 92.9491 10.8089C93.4857 9.89837 94.2156 9.20461 95.1386 8.72764C96.0617 8.229 97.1028 7.97967 98.262 7.97967C99.3567 7.97967 100.333 8.229 101.192 8.72764C102.072 9.22629 102.77 9.92005 103.285 10.8089C103.8 11.6978 104.058 12.7602 104.058 13.9959V24.1098H99.1313ZM109.145 24.1098V14.874C109.145 14.0718 108.898 13.4539 108.405 13.0203C107.933 12.565 107.342 12.3374 106.634 12.3374C106.14 12.3374 105.7 12.4458 105.314 12.6626C104.927 12.8577 104.616 13.1396 104.38 13.5081C104.165 13.8767 104.058 14.332 104.058 14.874L101.224 14.4837C101.267 13.1396 101.578 11.9905 102.158 11.0366C102.759 10.061 103.543 9.31301 104.509 8.79268C105.496 8.25068 106.602 7.97967 107.825 7.97967C109.027 7.97967 110.09 8.23984 111.013 8.76016C111.957 9.25881 112.698 9.9851 113.235 10.939C113.793 11.8713 114.072 12.9986 114.072 14.3211V24.1098H109.145Z" fill="white"/>
<path d="M123.765 24.435C122.327 24.435 121.039 24.0772 119.901 23.3618C118.785 22.6463 117.894 21.6707 117.229 20.435C116.585 19.1992 116.263 17.79 116.263 16.2073C116.263 14.6247 116.585 13.2154 117.229 11.9797C117.894 10.7439 118.785 9.76829 119.901 9.05285C121.039 8.3374 122.327 7.97967 123.765 7.97967C124.817 7.97967 125.762 8.18564 126.599 8.59756C127.458 9.00949 128.155 9.58401 128.692 10.3211C129.229 11.0366 129.529 11.8604 129.593 12.7927V19.622C129.529 20.5542 129.229 21.3889 128.692 22.126C128.177 22.8415 127.49 23.4051 126.631 23.8171C125.772 24.229 124.817 24.435 123.765 24.435ZM124.764 19.9472C125.815 19.9472 126.663 19.6003 127.307 18.9065C127.951 18.1911 128.273 17.2913 128.273 16.2073C128.273 15.4702 128.123 14.8198 127.823 14.2561C127.543 13.6924 127.136 13.2588 126.599 12.9553C126.084 12.6301 125.483 12.4675 124.796 12.4675C124.109 12.4675 123.497 12.6301 122.96 12.9553C122.445 13.2588 122.027 13.6924 121.705 14.2561C121.404 14.8198 121.254 15.4702 121.254 16.2073C121.254 16.9228 121.404 17.5623 121.705 18.126C122.005 18.6897 122.424 19.1341 122.96 19.4594C123.497 19.7846 124.098 19.9472 124.764 19.9472ZM128.08 24.1098V19.8496L128.821 16.0122L128.08 12.1748V8.30488H132.91V24.1098H128.08Z" fill="white"/>
<path d="M142.078 24.5C141.155 24.5 140.243 24.3808 139.341 24.1423C138.461 23.9038 137.635 23.5678 136.862 23.1341C136.11 22.6789 135.466 22.1585 134.93 21.5732L137.731 18.7114C138.246 19.2751 138.858 19.7195 139.566 20.0447C140.275 20.3482 141.048 20.5 141.885 20.5C142.464 20.5 142.904 20.4133 143.205 20.2398C143.527 20.0664 143.688 19.8279 143.688 19.5244C143.688 19.1341 143.495 18.8415 143.108 18.6463C142.743 18.4295 142.271 18.2453 141.692 18.0935C141.112 17.9201 140.5 17.7358 139.856 17.5407C139.212 17.3455 138.6 17.0745 138.021 16.7276C137.441 16.3808 136.969 15.9038 136.604 15.2967C136.239 14.668 136.057 13.8767 136.057 12.9228C136.057 11.9038 136.314 11.0257 136.83 10.2886C137.345 9.52981 138.075 8.93361 139.019 8.5C139.964 8.0664 141.069 7.84959 142.336 7.84959C143.667 7.84959 144.89 8.08808 146.006 8.56504C147.144 9.02033 148.067 9.70325 148.776 10.6138L145.974 13.4756C145.48 12.8902 144.922 12.4783 144.3 12.2398C143.699 12.0014 143.108 11.8821 142.529 11.8821C141.971 11.8821 141.552 11.9688 141.273 12.1423C140.994 12.294 140.854 12.5217 140.854 12.8252C140.854 13.1504 141.037 13.4106 141.402 13.6057C141.767 13.8008 142.239 13.9743 142.819 14.126C143.398 14.2778 144.01 14.4621 144.654 14.6789C145.298 14.8957 145.91 15.1883 146.489 15.5569C147.069 15.9255 147.541 16.4241 147.906 17.0528C148.271 17.6599 148.454 18.4621 148.454 19.4594C148.454 20.9986 147.874 22.2236 146.715 23.1341C145.577 24.0447 144.031 24.5 142.078 24.5Z" fill="white"/>
<path d="M158.081 24.4675C156.643 24.4675 155.366 24.1748 154.25 23.5894C153.155 22.9824 152.296 22.1585 151.674 21.1179C151.051 20.0556 150.74 18.8415 150.74 17.4756V8.30488H155.666V17.4106C155.666 17.9526 155.752 18.4187 155.924 18.8089C156.117 19.1992 156.396 19.5027 156.761 19.7195C157.126 19.9363 157.566 20.0447 158.081 20.0447C158.811 20.0447 159.391 19.8171 159.82 19.3618C160.249 18.8848 160.464 18.2344 160.464 17.4106V8.30488H165.391V17.4431C165.391 18.8306 165.079 20.0556 164.457 21.1179C163.834 22.1585 162.976 22.9824 161.881 23.5894C160.786 24.1748 159.52 24.4675 158.081 24.4675Z" fill="white"/>
<path d="M11.5939 8.12069L9.31348 4.57703H17.225L14.9291 8.12901L14.9303 8.1302V16.3308L17.0933 18.5209L14.7063 22.2394H14.6986L13.5003 24.1257V20.2782C14.0107 20.1688 14.3936 19.7162 14.3936 19.1739C14.3936 18.5501 13.8868 18.044 13.2621 18.044C12.6373 18.044 12.1305 18.5501 12.1305 19.1739C12.1305 19.7162 12.5134 20.1688 13.0238 20.2782V24.1257L11.8089 22.2388H11.8006L9.41532 18.5209L11.5939 16.3218V8.12069Z" fill="#F90F4A"/>
<path fill-rule="evenodd" clip-rule="evenodd" d="M5.7478 24.1418V10.302L9.73094 16.5109L10.4027 15.833V8.46976L7.89958 4.57703H0V24.1418H5.7478Z" fill="white"/>
<path fill-rule="evenodd" clip-rule="evenodd" d="M26.5074 4.57703H18.6197L16.1201 8.4769V15.8419L16.7776 16.5074L20.7584 10.302V24.1418H26.5074V4.57703Z" fill="white"/>
<rect y="0.858215" width="26.5075" height="2.56669" fill="#F90F4A"/>
</g>
<defs>
<clipPath id="clip0_305_140">
<rect width="165.391" height="24" fill="white" transform="translate(0 0.5)"/>
</clipPath>
</defs>
</svg>
