<svg width="765" height="134" viewBox="0 0 765 134" fill="none" xmlns="http://www.w3.org/2000/svg">
<path d="M100.602 112.025C103.098 108.473 104.374 104.237 104.374 99.4773L104.374 95.9259C108.59 95.0966 111.77 91.455 111.77 87.0923C111.77 82.7297 108.59 79.1061 104.374 78.2588L104.374 56.2652C108.59 55.4359 111.77 51.7943 111.77 47.4316C111.77 43.069 108.59 39.4454 104.374 38.5981L104.374 38.4178L100.602 38.4178L100.602 38.6161C96.4231 39.4815 93.2797 43.105 93.2797 47.4316C93.2797 51.7583 96.4231 55.3818 100.602 56.2471L100.602 78.2949C96.4231 79.1602 93.2797 82.7838 93.2797 87.1104C93.2797 91.437 96.4231 95.0605 100.602 95.9259L100.602 99.4953C100.602 103.515 99.548 107.031 97.4955 109.969C95.3506 112.998 92.3736 115.414 88.3796 117.343C87.3441 117.847 86.2532 118.298 85.1253 118.731C83.4427 117.036 81.0943 115.973 78.4872 115.973C74.3268 115.973 70.8505 118.677 69.6856 122.372C66.5977 122.751 63.3618 123.003 60.052 123.111C56.6682 123.003 53.4138 122.751 50.3074 122.372C49.1425 118.677 45.6663 115.973 41.5059 115.973C38.8987 115.973 36.5504 117.036 34.8678 118.731C33.7399 118.298 32.6489 117.829 31.6134 117.343C27.6194 115.414 24.6425 112.998 22.4975 109.987C20.4451 107.049 19.3911 103.534 19.3911 99.5134L19.3911 95.9439C23.57 95.0786 26.7134 91.455 26.7134 87.1284C26.7134 82.8018 23.57 79.1782 19.3911 78.3129L19.3911 56.2652C23.57 55.3998 26.7134 51.7763 26.7134 47.4497C26.7134 43.123 23.57 39.4995 19.3911 38.6342L19.3911 38.4359L15.619 38.4359L15.619 38.6161C11.4032 39.4454 8.22278 43.087 8.22278 47.4497C8.22278 51.8123 11.4032 55.4359 15.619 56.2832L15.619 78.2769C11.4032 79.1061 8.22278 82.7477 8.22278 87.1104C8.22278 91.4731 11.4032 95.0966 15.619 95.9439L15.619 99.4953C15.619 104.273 16.8948 108.491 19.3911 112.061C21.8873 115.576 25.4376 118.46 29.9493 120.642C30.8738 121.092 31.8538 121.489 32.8523 121.904C32.6858 122.318 32.5379 122.751 32.4455 123.184L8.22278 123.184L8.22278 126.789L32.4455 126.789C33.296 130.899 37.0312 134 41.5059 134C45.9806 134 49.6972 130.899 50.5663 126.789L69.4267 126.789C70.2773 130.899 74.0124 134 78.4872 134C82.9619 134 86.6785 130.899 87.5476 126.789L111.77 126.789L111.77 123.184L87.5476 123.184C87.4551 122.733 87.3072 122.318 87.1408 121.904C88.1393 121.507 89.1192 121.092 90.0623 120.642C94.574 118.46 98.1242 115.576 100.62 112.061L100.602 112.025ZM96.9778 47.4316C96.9778 45.1061 98.494 43.1411 100.602 42.3839C101.212 42.1676 101.841 42.0234 102.525 42.0234C103.209 42.0234 103.801 42.1496 104.374 42.3479C106.519 43.087 108.072 45.07 108.072 47.4316C108.072 49.7933 106.519 51.7583 104.374 52.5154C103.801 52.7137 103.172 52.8399 102.525 52.8399C101.878 52.8399 101.194 52.6957 100.602 52.4794C98.494 51.7042 96.9778 49.7392 96.9778 47.4316ZM96.9778 87.0923C96.9778 84.7668 98.494 82.8018 100.602 82.0446C101.212 81.8283 101.841 81.6841 102.525 81.6841C103.209 81.6841 103.801 81.8103 104.374 82.0086C106.519 82.7477 108.072 84.7307 108.072 87.0923C108.072 89.454 106.519 91.419 104.374 92.1761C103.801 92.3744 103.172 92.5006 102.525 92.5006C101.878 92.5006 101.194 92.3564 100.602 92.1401C98.494 91.3649 96.9778 89.3999 96.9778 87.0923ZM11.9209 47.4316C11.9209 45.0881 13.4741 43.105 15.619 42.3479C16.1922 42.1496 16.8209 42.0234 17.4681 42.0234C18.1153 42.0234 18.7994 42.1676 19.3911 42.3839C21.499 43.1591 23.0153 45.1241 23.0153 47.4316C23.0153 49.7392 21.499 51.7222 19.3911 52.4794C18.7809 52.6957 18.1522 52.8399 17.4681 52.8399C16.7839 52.8399 16.1922 52.7137 15.619 52.5154C13.4741 51.7763 11.9209 49.7933 11.9209 47.4316ZM11.9209 87.0924C11.9209 84.7488 13.4741 82.7657 15.619 82.0086C16.1922 81.8103 16.8209 81.6841 17.4681 81.6841C18.1153 81.6841 18.7994 81.8283 19.3911 82.0446C21.499 82.8198 23.0153 84.7848 23.0153 87.0924C23.0153 89.3999 21.499 91.3829 19.3911 92.1401C18.7809 92.3564 18.1522 92.5006 17.4681 92.5006C16.7839 92.5006 16.1922 92.3744 15.619 92.1761C13.4741 91.437 11.9209 89.454 11.9209 87.0924ZM41.5059 130.359C39.1021 130.359 37.0681 128.844 36.2915 126.753C36.0881 126.194 35.9587 125.581 35.9587 124.95C35.9587 124.319 36.0881 123.706 36.2915 123.148L36.2915 123.111C36.7908 121.795 37.7893 120.714 39.0836 120.101C39.8233 119.758 40.6183 119.542 41.4874 119.542C43.281 119.542 44.8712 120.389 45.8882 121.687C46.2395 122.12 46.4984 122.607 46.7018 123.148C46.9052 123.706 47.0346 124.319 47.0346 124.95C47.0346 125.167 46.9976 125.383 46.9606 125.581C46.9051 125.978 46.8312 126.374 46.6833 126.753C45.9251 128.844 43.8912 130.359 41.4689 130.359L41.5059 130.359ZM83.7015 123.148C83.9049 123.706 84.0344 124.319 84.0344 124.95C84.0344 125.581 83.9049 126.194 83.7015 126.753C82.9434 128.844 80.9094 130.359 78.4872 130.359C76.0649 130.359 74.0494 128.844 73.2728 126.753C73.1434 126.374 73.0509 125.996 72.9955 125.581C72.977 125.365 72.9215 125.167 72.9215 124.95C72.9215 124.319 73.0509 123.706 73.2543 123.148C73.4392 122.625 73.7166 122.138 74.0679 121.687C75.0849 120.389 76.6751 119.542 78.4687 119.542C79.3377 119.542 80.1513 119.758 80.8724 120.101C82.1668 120.714 83.1653 121.777 83.6645 123.111L83.6645 123.148L83.7015 123.148Z" fill="#F90F4A"/>
<path fill-rule="evenodd" clip-rule="evenodd" d="M119.478 28.5L119.478 3.5L2.29325e-07 3.5L1.97694e-07 28.5L42.7918 28.5L42.7918 42.8216L47.8279 67.1464C35.9106 79.3782 47.5906 105.188 57.6211 120.669C57.7272 120.833 57.8331 120.996 57.9388 121.157C58.4613 121.955 58.9785 122.724 59.4869 123.46C60.0108 122.705 60.5444 121.917 61.0837 121.1C61.1763 120.959 61.2691 120.818 61.362 120.676C71.7345 104.816 84.005 78.3546 71.7592 66.5448L76.8745 42.8216L76.8745 28.5L119.478 28.5ZM61.4007 90.811L67.5254 84.8842L59.9446 77.5491L52.2545 84.9908L58.2565 90.7982L57.9993 115.374C53.346 107.6 48.8017 98.0663 46.8825 89.2451C45.6388 83.5286 45.5661 78.4149 46.9916 74.3498C48.362 70.4419 51.195 67.255 56.443 65.3253C58.7413 64.4802 61.3311 64.4494 63.6255 65.2462C68.781 67.0365 71.5102 70.1136 72.7957 73.9468C74.1412 77.9587 73.9851 83.0706 72.6418 88.8316C70.5802 97.6732 65.9066 107.282 61.1459 115.159L61.4007 90.811ZM63.0669 84.8843L59.8351 88.0117L56.7129 84.9907L59.9448 81.8633L63.0669 84.8843Z" fill="white"/>
<path d="M195.187 131.821V81.5257C195.187 76.9259 193.749 73.234 190.873 70.4499C188.116 67.5447 184.58 66.0921 180.266 66.0921C177.269 66.0921 174.632 66.7579 172.355 68.0894C170.078 69.2999 168.28 71.1156 166.962 73.5366C165.643 75.8365 164.984 78.4995 164.984 81.5257L154.377 76.2602C154.377 69.3604 155.815 63.308 158.692 58.103C161.568 52.8979 165.583 48.9033 170.737 46.1192C175.891 43.2141 181.824 41.7615 188.535 41.7615C195.367 41.7615 201.36 43.2141 206.513 46.1192C211.667 48.9033 215.622 52.8374 218.379 57.9214C221.255 62.8844 222.694 68.6947 222.694 75.3523V131.821H195.187ZM137.478 131.821V0H164.984V131.821H137.478Z" fill="white"/>
<path d="M283.507 133.818C274.039 133.818 265.589 131.882 258.158 128.008C250.847 124.014 245.094 118.506 240.899 111.485C236.704 104.464 234.607 96.5357 234.607 87.6992C234.607 78.8627 236.644 70.9946 240.719 64.0948C244.914 57.0741 250.547 51.5664 257.619 47.5718C264.69 43.5772 272.66 41.5799 281.529 41.5799C290.159 41.5799 297.769 43.4562 304.361 47.2087C310.953 50.9612 316.107 56.1662 319.822 62.8238C323.658 69.4815 325.575 77.1075 325.575 85.7019C325.575 87.2755 325.456 88.9702 325.216 90.7859C325.096 92.4806 324.796 94.4779 324.317 96.7778L248.989 96.9594V77.8943L312.631 77.7127L300.766 85.7019C300.646 80.6179 299.867 76.4417 298.429 73.1734C296.99 69.7841 294.833 67.2421 291.957 65.5474C289.2 63.7317 285.784 62.8238 281.709 62.8238C277.394 62.8238 273.619 63.8528 270.383 65.9106C267.267 67.8473 264.81 70.6314 263.012 74.2629C261.334 77.8943 260.495 82.3126 260.495 87.5176C260.495 92.7227 261.394 97.2014 263.192 100.954C265.109 104.585 267.746 107.43 271.102 109.488C274.578 111.425 278.653 112.393 283.327 112.393C287.642 112.393 291.537 111.667 295.013 110.214C298.489 108.64 301.545 106.341 304.182 103.314L319.283 118.566C314.968 123.65 309.755 127.463 303.642 130.005C297.53 132.547 290.818 133.818 283.507 133.818Z" fill="white"/>
<path d="M338.852 131.821V43.5772H366.359V131.821H338.852ZM394.764 131.821V80.2547C394.764 75.776 393.386 72.3261 390.629 69.9052C387.992 67.3631 384.696 66.0921 380.741 66.0921C377.985 66.0921 375.528 66.6974 373.37 67.9079C371.213 68.9973 369.475 70.5709 368.157 72.6287C366.958 74.6865 366.359 77.2285 366.359 80.2547L355.752 75.5339C355.752 68.5131 357.25 62.5212 360.246 57.5583C363.243 52.4743 367.318 48.6007 372.471 45.9377C377.625 43.1536 383.438 41.7615 389.91 41.7615C396.022 41.7615 401.476 43.1536 406.27 45.9377C411.184 48.7218 415.079 52.5953 417.956 57.5583C420.832 62.5212 422.27 68.4526 422.27 75.3523V131.821H394.764ZM450.676 131.821V80.2547C450.676 75.776 449.297 72.3261 446.541 69.9052C443.904 67.3631 440.608 66.0921 436.653 66.0921C433.896 66.0921 431.439 66.6974 429.282 67.9079C427.124 68.9973 425.387 70.5709 424.068 72.6287C422.87 74.6865 422.27 77.2285 422.27 80.2547L406.45 78.0759C406.689 70.5709 408.427 64.1554 411.663 58.8293C415.019 53.3821 419.394 49.206 424.787 46.3008C430.301 43.2746 436.473 41.7615 443.305 41.7615C450.016 41.7615 455.949 43.2141 461.103 46.1192C466.376 48.9033 470.511 52.9584 473.508 58.2846C476.624 63.4896 478.182 69.7841 478.182 77.168V131.821H450.676Z" fill="white"/>
<path d="M532.304 133.637C524.274 133.637 517.083 131.64 510.73 127.645C504.498 123.65 499.524 118.203 495.809 111.304C492.213 104.404 490.415 96.5357 490.415 87.6992C490.415 78.8627 492.213 70.9946 495.809 64.0948C499.524 57.1951 504.498 51.748 510.73 47.7534C517.083 43.7588 524.274 41.7615 532.304 41.7615C538.177 41.7615 543.45 42.9115 548.125 45.2114C552.919 47.5113 556.814 50.7191 559.81 54.8347C562.807 58.8293 564.485 63.4291 564.844 68.6341V106.764C564.485 111.969 562.807 116.63 559.81 120.745C556.934 124.74 553.099 127.887 548.304 130.187C543.51 132.487 538.177 133.637 532.304 133.637ZM537.877 108.58C543.75 108.58 548.484 106.643 552.08 102.77C555.675 98.7751 557.473 93.7516 557.473 87.6992C557.473 83.5836 556.634 79.9521 554.956 76.8049C553.398 73.6576 551.121 71.2367 548.125 69.542C545.248 67.7263 541.892 66.8184 538.057 66.8184C534.222 66.8184 530.806 67.7263 527.81 69.542C524.933 71.2367 522.596 73.6576 520.798 76.8049C519.12 79.9521 518.281 83.5836 518.281 87.6992C518.281 91.6938 519.12 95.2647 520.798 98.4119C522.476 101.559 524.813 104.041 527.81 105.856C530.806 107.672 534.162 108.58 537.877 108.58ZM556.395 131.821V108.035L560.53 86.6098L556.395 65.1843V43.5772H583.362V131.821H556.395Z" fill="white"/>
<path d="M634.55 134C629.396 134 624.302 133.334 619.268 132.003C614.354 130.671 609.74 128.795 605.425 126.374C601.23 123.832 597.635 120.927 594.639 117.659L610.279 101.68C613.156 104.827 616.572 107.309 620.527 109.125C624.482 110.819 628.797 111.667 633.471 111.667C636.707 111.667 639.164 111.182 640.842 110.214C642.64 109.246 643.539 107.914 643.539 106.22C643.539 104.041 642.46 102.407 640.303 101.317C638.265 100.107 635.628 99.0777 632.392 98.2304C629.156 97.262 625.74 96.2331 622.145 95.1436C618.549 94.0542 615.133 92.5411 611.897 90.6043C608.661 88.6676 606.025 86.0045 603.987 82.6152C601.95 79.1048 600.931 74.6865 600.931 69.3604C600.931 63.6712 602.369 58.7687 605.246 54.6531C608.122 50.4164 612.197 47.0876 617.471 44.6667C622.744 42.2457 628.917 41.0352 635.988 41.0352C643.419 41.0352 650.251 42.3668 656.483 45.0298C662.835 47.5718 667.989 51.3848 671.944 56.4688L656.303 72.4472C653.546 69.1789 650.43 66.879 646.954 65.5474C643.599 64.2159 640.303 63.5501 637.067 63.5501C633.95 63.5501 631.613 64.0343 630.055 65.0027C628.497 65.85 627.718 67.121 627.718 68.8157C627.718 70.6314 628.737 72.084 630.774 73.1734C632.812 74.2629 635.449 75.2313 638.685 76.0786C641.921 76.9259 645.336 77.9548 648.932 79.1653C652.528 80.3758 655.944 82.0099 659.18 84.0677C662.416 86.1256 665.052 88.9097 667.09 92.4201C669.127 95.8094 670.146 100.288 670.146 105.856C670.146 114.451 666.91 121.29 660.438 126.374C654.086 131.458 645.456 134 634.55 134Z" fill="white"/>
<path d="M723.902 133.818C715.872 133.818 708.74 132.184 702.508 128.916C696.395 125.527 691.601 120.927 688.125 115.117C684.65 109.185 682.912 102.407 682.912 94.7805V43.5772H710.418V94.4173C710.418 97.4435 710.898 100.046 711.856 102.225C712.935 104.404 714.493 106.098 716.531 107.309C718.568 108.519 721.025 109.125 723.902 109.125C727.977 109.125 731.213 107.854 733.61 105.312C736.007 102.649 737.205 99.0172 737.205 94.4173V43.5772H764.712V94.5989C764.712 102.346 762.974 109.185 759.498 115.117C756.022 120.927 751.228 125.527 745.116 128.916C739.003 132.184 731.932 133.818 723.902 133.818Z" fill="white"/>
</svg>
