<svg width="137" height="25" viewBox="0 0 137 25" fill="none" xmlns="http://www.w3.org/2000/svg">
<path d="M18.0182 20.5641C18.4653 19.928 18.6938 19.1692 18.6938 18.3168L18.6938 17.6807C19.4489 17.5322 20.0185 16.88 20.0185 16.0986C20.0185 15.3172 19.4489 14.6683 18.6938 14.5165L18.6938 10.5773C19.4489 10.4288 20.0185 9.77658 20.0185 8.99521C20.0185 8.21383 19.4489 7.56484 18.6938 7.41309L18.6938 7.3808L18.0182 7.3808L18.0182 7.41631C17.2697 7.5713 16.7067 8.22029 16.7067 8.99521C16.7067 9.77013 17.2697 10.4191 18.0182 10.5741L18.0182 14.523C17.2697 14.6779 16.7067 15.3269 16.7067 16.1018C16.7067 16.8768 17.2697 17.5258 18.0182 17.6807L18.0182 18.32C18.0182 19.0401 17.8294 19.6697 17.4618 20.196C17.0776 20.7384 16.5444 21.1711 15.8291 21.5166C15.6436 21.607 15.4483 21.6877 15.2462 21.7652C14.9449 21.4617 14.5243 21.2712 14.0573 21.2712C13.3122 21.2712 12.6896 21.7555 12.4809 22.4174C11.9279 22.4852 11.3483 22.5304 10.7555 22.5498C10.1495 22.5304 9.56658 22.4852 9.0102 22.4174C8.80156 21.7555 8.17896 21.2712 7.43381 21.2712C6.96686 21.2712 6.54627 21.4617 6.2449 21.7652C6.04288 21.6877 5.84748 21.6038 5.66202 21.5166C4.94669 21.1711 4.41349 20.7384 4.02933 20.1992C3.66173 19.6729 3.47295 19.0433 3.47295 18.3233L3.47295 17.684C4.22141 17.529 4.78441 16.88 4.78441 16.1051C4.78441 15.3302 4.22141 14.6812 3.47295 14.5262L3.47295 10.5773C4.22141 10.4223 4.78441 9.77336 4.78441 8.99844C4.78441 8.22352 4.22141 7.57453 3.47295 7.41954L3.47295 7.38403L2.79736 7.38403L2.79736 7.41631C2.04228 7.56484 1.47266 8.21706 1.47266 8.99844C1.47266 9.77981 2.04228 10.4288 2.79736 10.5806L2.79736 14.5197C2.04228 14.6683 1.47266 15.3205 1.47266 16.1018C1.47266 16.8832 2.04228 17.5322 2.79736 17.684L2.79736 18.32C2.79736 19.1757 3.02586 19.9312 3.47295 20.5705C3.92004 21.2002 4.5559 21.7168 5.36397 22.1075C5.52956 22.1882 5.70507 22.2592 5.88391 22.3335C5.8541 22.4077 5.82761 22.4852 5.81105 22.5627L1.47266 22.5627L1.47266 23.2085L5.81105 23.2085C5.96339 23.9447 6.63237 24.5 7.43381 24.5C8.23526 24.5 8.90092 23.9447 9.05657 23.2085L12.4346 23.2085C12.5869 23.9447 13.2559 24.5 14.0573 24.5C14.8588 24.5 15.5244 23.9447 15.6801 23.2085L20.0185 23.2085L20.0185 22.5627L15.6801 22.5627C15.6635 22.482 15.637 22.4077 15.6072 22.3335C15.7861 22.2624 15.9616 22.1882 16.1305 22.1075C16.9385 21.7168 17.5744 21.2002 18.0215 20.5705L18.0182 20.5641ZM17.3691 8.99521C17.3691 8.57869 17.6406 8.22675 18.0182 8.09114C18.1275 8.05239 18.2401 8.02656 18.3626 8.02656C18.4851 8.02656 18.5911 8.04916 18.6938 8.08468C19.0779 8.21706 19.3561 8.57223 19.3561 8.99521C19.3561 9.41819 19.0779 9.77013 18.6938 9.90574C18.5911 9.94125 18.4785 9.96386 18.3626 9.96386C18.2467 9.96386 18.1242 9.93803 18.0182 9.89928C17.6406 9.76044 17.3691 9.4085 17.3691 8.99521ZM17.3691 16.0986C17.3691 15.6821 17.6406 15.3302 18.0182 15.1945C18.1275 15.1558 18.2401 15.13 18.3626 15.13C18.4851 15.13 18.5911 15.1526 18.6938 15.1881C19.0779 15.3205 19.3561 15.6756 19.3561 16.0986C19.3561 16.5216 19.0779 16.8735 18.6938 17.0091C18.5911 17.0447 18.4785 17.0673 18.3626 17.0673C18.2467 17.0673 18.1242 17.0414 18.0182 17.0027C17.6406 16.8639 17.3691 16.5119 17.3691 16.0986ZM2.13501 8.99521C2.13501 8.57546 2.41319 8.22029 2.79736 8.08468C2.90002 8.04916 3.01262 8.02656 3.12853 8.02656C3.24445 8.02656 3.36697 8.05239 3.47295 8.09114C3.85049 8.22998 4.12206 8.58192 4.12206 8.99521C4.12206 9.4085 3.85049 9.76367 3.47295 9.89928C3.36366 9.93803 3.25107 9.96386 3.12853 9.96386C3.006 9.96386 2.90002 9.94125 2.79736 9.90574C2.41319 9.77336 2.13501 9.41819 2.13501 8.99521ZM2.13501 16.0986C2.13501 15.6789 2.41319 15.3237 2.79736 15.1881C2.90002 15.1526 3.01262 15.13 3.12853 15.13C3.24445 15.13 3.36697 15.1558 3.47295 15.1945C3.85049 15.3334 4.12206 15.6853 4.12206 16.0986C4.12206 16.5119 3.85049 16.8671 3.47295 17.0027C3.36366 17.0414 3.25107 17.0673 3.12853 17.0673C3.006 17.0673 2.90002 17.0447 2.79736 17.0091C2.41319 16.8768 2.13501 16.5216 2.13501 16.0986ZM7.43381 23.8478C7.00329 23.8478 6.63899 23.5766 6.4999 23.202C6.46347 23.1019 6.44029 22.9922 6.44029 22.8791C6.44029 22.7661 6.46347 22.6564 6.4999 22.5563L6.4999 22.5498C6.58932 22.3141 6.76815 22.1204 6.99998 22.0106C7.13245 21.9492 7.27485 21.9105 7.4305 21.9105C7.75174 21.9105 8.03655 22.0623 8.2187 22.2947C8.28162 22.3722 8.32799 22.4594 8.36442 22.5563C8.40085 22.6564 8.42403 22.7661 8.42403 22.8791C8.42403 22.9179 8.4174 22.9566 8.41078 22.9922C8.40084 23.0632 8.3876 23.1342 8.3611 23.202C8.22532 23.5766 7.86102 23.8478 7.42718 23.8478L7.43381 23.8478ZM14.9912 22.5563C15.0277 22.6564 15.0509 22.7661 15.0509 22.8791C15.0509 22.9922 15.0277 23.1019 14.9912 23.202C14.8554 23.5766 14.4912 23.8478 14.0573 23.8478C13.6235 23.8478 13.2625 23.5766 13.1234 23.202C13.1002 23.1342 13.0837 23.0664 13.0737 22.9922C13.0704 22.9534 13.0605 22.9179 13.0605 22.8791C13.0605 22.7661 13.0837 22.6564 13.1201 22.5563C13.1532 22.4626 13.2029 22.3755 13.2658 22.2947C13.448 22.0623 13.7328 21.9105 14.054 21.9105C14.2097 21.9105 14.3554 21.9492 14.4845 22.0106C14.7164 22.1204 14.8952 22.3109 14.9846 22.5498L14.9846 22.5563L14.9912 22.5563Z" fill="#F90F4A"/>
<path fill-rule="evenodd" clip-rule="evenodd" d="M21.3985 5.60447L21.3985 1.12686L-0.00048824 1.12686L-0.000488246 5.60447L7.66372 5.60447L7.66372 8.16954L8.5657 12.5262C6.43127 14.717 8.52321 19.3396 10.3197 22.1124C10.3387 22.1417 10.3577 22.1709 10.3766 22.1998C10.4702 22.3427 10.5628 22.4804 10.6539 22.6123C10.7477 22.4771 10.8433 22.3359 10.9399 22.1895C10.9565 22.1644 10.9731 22.1391 10.9897 22.1136C12.8475 19.273 15.0452 14.5337 12.8519 12.4185L13.7681 8.16954L13.7681 5.60447L21.3985 5.60447ZM10.9966 16.7647L12.0936 15.7031L10.7359 14.3894L9.35853 15.7222L10.4335 16.7624L10.3874 21.1641C9.55402 19.7716 8.74011 18.0641 8.39638 16.4842C8.17363 15.4603 8.1606 14.5445 8.41592 13.8164C8.66137 13.1164 9.16876 12.5457 10.1087 12.2001C10.5203 12.0487 10.9842 12.0432 11.3951 12.1859C12.3185 12.5065 12.8073 13.0577 13.0375 13.7442C13.2785 14.4627 13.2506 15.3783 13.01 16.4101C12.6407 17.9937 11.8037 19.7146 10.951 21.1254L10.9966 16.7647ZM11.2951 15.7031L10.7163 16.2633L10.1571 15.7222L10.7359 15.1621L11.2951 15.7031Z" fill="white"/>
<path d="M34.9591 24.1098V15.1016C34.9591 14.2778 34.7015 13.6165 34.1863 13.1179C33.6925 12.5976 33.0593 12.3374 32.2865 12.3374C31.7498 12.3374 31.2776 12.4566 30.8697 12.6951C30.4619 12.9119 30.1399 13.2371 29.9037 13.6707C29.6676 14.0827 29.5496 14.5596 29.5496 15.1016L27.6498 14.1585C27.6498 12.9228 27.9074 11.8388 28.4226 10.9065C28.9378 9.97425 29.6569 9.25881 30.5799 8.76016C31.503 8.23984 32.5656 7.97967 33.7677 7.97967C34.9912 7.97967 36.0646 8.23984 36.9876 8.76016C37.9107 9.25881 38.619 9.96341 39.1128 10.874C39.628 11.7629 39.8856 12.8035 39.8856 13.9959V24.1098H34.9591ZM24.623 24.1098V0.5H29.5496V24.1098H24.623Z" fill="white"/>
<path d="M50.7775 24.4675C49.0817 24.4675 47.5683 24.1206 46.2374 23.4268C44.9279 22.7114 43.8976 21.7249 43.1462 20.4675C42.3949 19.21 42.0193 17.79 42.0193 16.2073C42.0193 14.6247 42.3842 13.2154 43.114 11.9797C43.8654 10.7222 44.8743 9.73577 46.1408 9.02033C47.4073 8.30488 48.8348 7.94715 50.4233 7.94715C51.9689 7.94715 53.332 8.2832 54.5126 8.95528C55.6933 9.62737 56.6163 10.5596 57.2818 11.752C57.9687 12.9444 58.3121 14.3103 58.3121 15.8496C58.3121 16.1314 58.2907 16.435 58.2478 16.7602C58.2263 17.0637 58.1726 17.4214 58.0868 17.8333L44.5952 17.8659V14.4512L55.9938 14.4187L53.8686 15.8496C53.8472 14.939 53.7076 14.1911 53.45 13.6057C53.1925 12.9986 52.8061 12.5434 52.2909 12.2398C51.7971 11.9146 51.1854 11.752 50.4555 11.752C49.6827 11.752 49.0065 11.9363 48.4269 12.3049C47.8688 12.6518 47.4288 13.1504 47.1068 13.8008C46.8062 14.4512 46.656 15.2425 46.656 16.1748C46.656 17.107 46.817 17.9092 47.139 18.5813C47.4824 19.2317 47.9547 19.7412 48.5557 20.1098C49.1783 20.4566 49.9081 20.6301 50.7453 20.6301C51.5181 20.6301 52.2157 20.5 52.8383 20.2398C53.4608 19.958 54.0082 19.5461 54.4804 19.0041L57.1852 21.7358C56.4124 22.6463 55.4786 23.3293 54.3838 23.7846C53.2891 24.2398 52.0869 24.4675 50.7775 24.4675Z" fill="white"/>
<path d="M60.6901 24.1098V8.30488H65.6166V24.1098H60.6901ZM70.7041 24.1098V14.874C70.7041 14.0718 70.4573 13.4539 69.9636 13.0203C69.4913 12.565 68.901 12.3374 68.1926 12.3374C67.6989 12.3374 67.2588 12.4458 66.8724 12.6626C66.486 12.8577 66.1748 13.1396 65.9386 13.5081C65.724 13.8767 65.6166 14.332 65.6166 14.874L63.7169 14.0285C63.7169 12.771 63.9852 11.6978 64.5219 10.8089C65.0585 9.89837 65.7884 9.20461 66.7114 8.72764C67.6345 8.229 68.6756 7.97967 69.8348 7.97967C70.9295 7.97967 71.9062 8.229 72.7649 8.72764C73.645 9.22629 74.3427 9.92005 74.8579 10.8089C75.3731 11.6978 75.6306 12.7602 75.6306 13.9959V24.1098H70.7041ZM80.7182 24.1098V14.874C80.7182 14.0718 80.4713 13.4539 79.9776 13.0203C79.5053 12.565 78.915 12.3374 78.2066 12.3374C77.7129 12.3374 77.2728 12.4458 76.8864 12.6626C76.5 12.8577 76.1888 13.1396 75.9526 13.5081C75.738 13.8767 75.6306 14.332 75.6306 14.874L72.7971 14.4837C72.84 13.1396 73.1513 11.9905 73.7309 11.0366C74.3319 10.061 75.1155 9.31301 76.0814 8.79268C77.0689 8.25068 78.1744 7.97967 79.398 7.97967C80.6001 7.97967 81.6627 8.23984 82.5857 8.76016C83.5302 9.25881 84.2708 9.98509 84.8075 10.939C85.3656 11.8713 85.6446 12.9986 85.6446 14.3211V24.1098H80.7182Z" fill="white"/>
<path d="M95.3382 24.435C93.8999 24.435 92.612 24.0772 91.4742 23.3618C90.358 22.6463 89.4672 21.6707 88.8017 20.435C88.1577 19.1992 87.8357 17.79 87.8357 16.2073C87.8357 14.6247 88.1577 13.2154 88.8017 11.9797C89.4672 10.7439 90.358 9.76829 91.4742 9.05285C92.612 8.3374 93.8999 7.97967 95.3382 7.97967C96.39 7.97967 97.3345 8.18564 98.1717 8.59756C99.0304 9.00949 99.728 9.58401 100.265 10.3211C100.801 11.0366 101.102 11.8604 101.166 12.7927V19.622C101.102 20.5542 100.801 21.3889 100.265 22.126C99.7495 22.8415 99.0626 23.4051 98.2039 23.8171C97.3453 24.229 96.39 24.435 95.3382 24.435ZM96.3364 19.9472C97.3882 19.9472 98.2361 19.6003 98.8801 18.9065C99.5241 18.1911 99.8461 17.2913 99.8461 16.2073C99.8461 15.4702 99.6958 14.8198 99.3953 14.2561C99.1162 13.6924 98.7084 13.2588 98.1717 12.9553C97.6565 12.6301 97.0555 12.4675 96.3685 12.4675C95.6816 12.4675 95.0698 12.6301 94.5332 12.9553C94.018 13.2588 93.5994 13.6924 93.2774 14.2561C92.9769 14.8198 92.8266 15.4702 92.8266 16.2073C92.8266 16.9228 92.9769 17.5623 93.2774 18.126C93.5779 18.6897 93.9965 19.1341 94.5332 19.4594C95.0698 19.7846 95.6709 19.9472 96.3364 19.9472ZM99.6529 24.1098V19.8496L100.393 16.0122L99.6529 12.1748V8.30488H104.483V24.1098H99.6529Z" fill="white"/>
<path d="M113.651 24.5C112.728 24.5 111.815 24.3808 110.914 24.1423C110.034 23.9038 109.207 23.5678 108.435 23.1341C107.683 22.6789 107.039 22.1585 106.503 21.5732L109.304 18.7114C109.819 19.2751 110.431 19.7195 111.139 20.0447C111.848 20.3482 112.62 20.5 113.458 20.5C114.037 20.5 114.477 20.4133 114.778 20.2398C115.1 20.0664 115.261 19.8279 115.261 19.5244C115.261 19.1341 115.068 18.8415 114.681 18.6463C114.316 18.4295 113.844 18.2453 113.264 18.0935C112.685 17.9201 112.073 17.7358 111.429 17.5407C110.785 17.3455 110.173 17.0745 109.594 16.7276C109.014 16.3808 108.542 15.9038 108.177 15.2967C107.812 14.668 107.63 13.8767 107.63 12.9228C107.63 11.9038 107.887 11.0257 108.402 10.2886C108.918 9.52981 109.647 8.9336 110.592 8.5C111.536 8.0664 112.642 7.84959 113.908 7.84959C115.239 7.84959 116.463 8.08808 117.579 8.56504C118.717 9.02033 119.64 9.70325 120.348 10.6138L117.547 13.4756C117.053 12.8902 116.495 12.4783 115.873 12.2398C115.272 12.0014 114.681 11.8821 114.102 11.8821C113.543 11.8821 113.125 11.9688 112.846 12.1423C112.567 12.294 112.427 12.5217 112.427 12.8252C112.427 13.1504 112.61 13.4106 112.975 13.6057C113.34 13.8008 113.812 13.9743 114.391 14.126C114.971 14.2778 115.583 14.4621 116.227 14.6789C116.871 14.8957 117.483 15.1883 118.062 15.5569C118.642 15.9255 119.114 16.4241 119.479 17.0528C119.844 17.6599 120.026 18.4621 120.026 19.4594C120.026 20.9986 119.447 22.2236 118.288 23.1341C117.15 24.0447 115.604 24.5 113.651 24.5Z" fill="white"/>
<path d="M129.654 24.4675C128.216 24.4675 126.939 24.1748 125.822 23.5894C124.728 22.9824 123.869 22.1585 123.246 21.1179C122.624 20.0556 122.313 18.8415 122.313 17.4756V8.30488H127.239V17.4106C127.239 17.9526 127.325 18.4187 127.497 18.8089C127.69 19.1992 127.969 19.5027 128.334 19.7195C128.699 19.9363 129.139 20.0447 129.654 20.0447C130.384 20.0447 130.964 19.8171 131.393 19.3618C131.822 18.8848 132.037 18.2344 132.037 17.4106V8.30488H136.963V17.4431C136.963 18.8306 136.652 20.0556 136.03 21.1179C135.407 22.1585 134.548 22.9824 133.454 23.5894C132.359 24.1748 131.092 24.4675 129.654 24.4675Z" fill="white"/>
</svg>
