<svg width="24" height="24" viewBox="0 0 24 24" fill="none" xmlns="http://www.w3.org/2000/svg">
<path d="M20.5033 5.55506C20.5135 5.5623 20.5237 5.56962 20.5338 5.577L13.9539 12.693C12.8906 13.8441 11.1596 13.8441 10.0963 12.693L3.50592 5.55859C3.64605 5.45475 3.79578 5.36441 3.95416 5.29078C4.58867 4.99556 5.24876 5.00175 5.92658 5.00811C6.03257 5.00911 6.13899 5.01011 6.24581 5.00996C7.19137 5.00886 8.13694 5.00803 9.0825 5.0072C10.0281 5.00637 10.9737 5.00555 11.9192 5.00445C12.9023 5.0039 13.8857 5.00307 14.869 5.00224C15.8524 5.00141 16.8357 5.00059 17.8188 5.00004L17.8777 5C18.7908 5 19.7612 5.03006 20.5033 5.55506Z" fill="white"/>
<path d="M1.98689 9.55361C1.98071 9.6709 1.97499 9.78822 1.96973 9.90555V13.9344C1.9821 14.212 1.99702 14.4895 2.01448 14.7668C2.06855 15.617 2.17831 16.5272 2.54139 17.2779L7.42296 12.0002L2.54884 6.73059C2.54389 6.74067 2.53899 6.75078 2.53415 6.76089C2.1226 7.62315 2.03654 8.59995 1.98689 9.55361Z" fill="white"/>
<path d="M20.4875 18.3728C19.9587 18.7122 19.3154 18.8698 18.6496 18.9415C18.1818 18.9922 17.703 19.001 17.244 18.9999C13.6882 18.9977 10.1324 18.9944 6.57775 18.9912L6.50399 18.9911C5.47916 18.9901 4.37231 18.9609 3.52635 18.4191L8.43614 13.097L9.07605 13.7974C9.88795 14.6763 10.9582 15.1114 12.0216 15.1114C13.0921 15.1114 14.1552 14.6763 14.9671 13.7974L15.614 13.097L20.4875 18.3728Z" fill="white"/>
<path d="M21.8714 8.75302C21.8034 8.09836 21.6924 7.40573 21.4435 6.79986L16.6272 12.0002L21.4638 17.2225C21.7211 16.6483 21.8156 15.9885 21.8791 15.3537C22.0998 13.1601 22.0976 10.9456 21.8714 8.75302Z" fill="white"/>
</svg>
