<svg width="48" height="48" viewBox="0 0 48 48" fill="none" xmlns="http://www.w3.org/2000/svg">
<g clip-path="url(#clip0_454_433)">
<path fill-rule="evenodd" clip-rule="evenodd" d="M0 0V4H1V44H0V48H4V47H44V48H48V44H47V4H48V0H44V1H4V0H0ZM3 1H1V3H3V1ZM4 45H44V44H45V4H44V3H4V4H3V44H4V45ZM45 1H47V3H45V1ZM45 45H47V47H45V45ZM1 45H3V47H1V45Z" fill="white"/>
<path d="M33.9052 34.6833C34.5161 33.8141 34.8284 32.7773 34.8284 31.6125L34.8284 30.7433C35.8602 30.5404 36.6385 29.6491 36.6385 28.5814C36.6385 27.5137 35.8602 26.6269 34.8284 26.4195L34.8284 21.0368C35.8602 20.8338 36.6385 19.9426 36.6385 18.8749C36.6385 17.8072 35.8602 16.9203 34.8284 16.713L34.8284 16.6689L33.9052 16.6689L33.9052 16.7174C32.8825 16.9292 32.1131 17.816 32.1131 18.8749C32.1131 19.9338 32.8825 20.8206 33.9052 21.0324L33.9052 26.4283C32.8825 26.6401 32.1131 27.5269 32.1131 28.5858C32.1131 29.6447 32.8825 30.5315 33.9052 30.7433L33.9052 31.6169C33.9052 32.6008 33.6473 33.4612 33.1449 34.1803C32.62 34.9215 31.8914 35.5128 30.9139 35.9849C30.6605 36.1084 30.3935 36.2187 30.1175 36.3246C29.7056 35.9098 29.1309 35.6495 28.4928 35.6495C27.4746 35.6495 26.6239 36.3113 26.3388 37.2158C25.583 37.3085 24.7911 37.3702 23.981 37.3967C23.1529 37.3702 22.3564 37.3085 21.5961 37.2158C21.3111 36.3113 20.4603 35.6495 19.4421 35.6495C18.804 35.6495 18.2293 35.9098 17.8175 36.3246C17.5414 36.2187 17.2744 36.104 17.021 35.9849C16.0435 35.5128 15.3149 34.9215 14.79 34.1847C14.2877 33.4656 14.0297 32.6052 14.0297 31.6213L14.0297 30.7477C15.0524 30.536 15.8218 29.6491 15.8218 28.5902C15.8218 27.5313 15.0524 26.6445 14.0297 26.4327L14.0297 21.0368C15.0524 20.825 15.8218 19.9382 15.8218 18.8793C15.8218 17.8204 15.0524 16.9336 14.0297 16.7218L14.0297 16.6733L13.1065 16.6733L13.1065 16.7174C12.0748 16.9203 11.2964 17.8116 11.2964 18.8793C11.2964 19.947 12.0748 20.8338 13.1065 21.0412L13.1065 26.4239C12.0748 26.6269 11.2964 27.5181 11.2964 28.5858C11.2964 29.6535 12.0748 30.5404 13.1065 30.7477L13.1065 31.6169C13.1065 32.7861 13.4188 33.8185 14.0297 34.6921C14.6406 35.5525 15.5095 36.2584 16.6137 36.7923C16.84 36.9026 17.0798 36.9996 17.3242 37.1011C17.2835 37.2026 17.2473 37.3085 17.2246 37.4144L11.2964 37.4144L11.2964 38.2968L17.2246 38.2968C17.4328 39.3027 18.3469 40.0616 19.4421 40.0616C20.5372 40.0616 21.4468 39.3027 21.6595 38.2968L26.2754 38.2968C26.4836 39.3027 27.3977 40.0616 28.4928 40.0616C29.588 40.0616 30.4976 39.3027 30.7103 38.2968L36.6385 38.2968L36.6385 37.4144L30.7103 37.4144C30.6877 37.3041 30.6514 37.2026 30.6107 37.1011C30.8551 37.004 31.0949 36.9026 31.3257 36.7923C32.4299 36.2584 33.2988 35.5525 33.9097 34.6921L33.9052 34.6833ZM33.0182 18.8749C33.0182 18.3057 33.3893 17.8248 33.9052 17.6395C34.0545 17.5866 34.2084 17.5513 34.3758 17.5513C34.5433 17.5513 34.6881 17.5821 34.8284 17.6307C35.3533 17.8116 35.7335 18.2969 35.7335 18.8749C35.7335 19.4529 35.3533 19.9338 34.8284 20.1191C34.6881 20.1676 34.5342 20.1985 34.3758 20.1985C34.2175 20.1985 34.05 20.1632 33.9052 20.1103C33.3893 19.9205 33.0182 19.4396 33.0182 18.8749ZM33.0182 28.5814C33.0182 28.0123 33.3893 27.5313 33.9052 27.346C34.0545 27.2931 34.2084 27.2578 34.3758 27.2578C34.5433 27.2578 34.6881 27.2887 34.8284 27.3372C35.3533 27.5181 35.7335 28.0034 35.7335 28.5814C35.7335 29.1594 35.3533 29.6403 34.8284 29.8256C34.6881 29.8742 34.5342 29.905 34.3758 29.905C34.2175 29.905 34.05 29.8697 33.9052 29.8168C33.3893 29.6271 33.0182 29.1462 33.0182 28.5814ZM12.2015 18.8749C12.2015 18.3013 12.5816 17.816 13.1065 17.6307C13.2468 17.5821 13.4007 17.5513 13.5591 17.5513C13.7175 17.5513 13.8849 17.5866 14.0297 17.6395C14.5456 17.8292 14.9167 18.3101 14.9167 18.8749C14.9167 19.4396 14.5456 19.925 14.0297 20.1103C13.8804 20.1632 13.7265 20.1985 13.5591 20.1985C13.3916 20.1985 13.2468 20.1676 13.1065 20.1191C12.5816 19.9382 12.2015 19.4529 12.2015 18.8749ZM12.2015 28.5814C12.2015 28.0078 12.5816 27.5225 13.1065 27.3372C13.2468 27.2887 13.4007 27.2578 13.5591 27.2578C13.7175 27.2578 13.8849 27.2931 14.0297 27.346C14.5456 27.5358 14.9167 28.0167 14.9167 28.5814C14.9167 29.1462 14.5456 29.6315 14.0297 29.8168C13.8804 29.8697 13.7265 29.905 13.5591 29.905C13.3916 29.905 13.2468 29.8742 13.1065 29.8256C12.5816 29.6447 12.2015 29.1594 12.2015 28.5814ZM19.4421 39.1704C18.8538 39.1704 18.356 38.7998 18.1659 38.288C18.1161 38.1512 18.0845 38.0012 18.0845 37.8467C18.0845 37.6923 18.1161 37.5423 18.1659 37.4055L18.1659 37.3967C18.2881 37.0746 18.5325 36.8099 18.8493 36.6599C19.0303 36.5761 19.2249 36.5231 19.4375 36.5231C19.8765 36.5231 20.2657 36.7305 20.5146 37.0482C20.6006 37.154 20.6639 37.2732 20.7137 37.4055C20.7635 37.5423 20.7952 37.6923 20.7952 37.8467C20.7952 37.8997 20.7861 37.9526 20.7771 38.0012C20.7635 38.0982 20.7454 38.1953 20.7092 38.288C20.5236 38.7998 20.0258 39.1704 19.433 39.1704L19.4421 39.1704ZM29.769 37.4055C29.8188 37.5423 29.8505 37.6923 29.8505 37.8467C29.8505 38.0012 29.8188 38.1512 29.769 38.288C29.5834 38.7997 29.0857 39.1704 28.4928 39.1704C27.9 39.1704 27.4067 38.7997 27.2167 38.288C27.185 38.1953 27.1624 38.1026 27.1488 38.0012C27.1443 37.9482 27.1307 37.8997 27.1307 37.8467C27.1307 37.6923 27.1624 37.5423 27.2122 37.4055C27.2574 37.2776 27.3253 37.1585 27.4113 37.0482C27.6602 36.7305 28.0494 36.5231 28.4883 36.5231C28.701 36.5231 28.9001 36.5761 29.0766 36.6599C29.3934 36.8099 29.6378 37.0702 29.7599 37.3967L29.7599 37.4055L29.769 37.4055Z" fill="white"/>
<path fill-rule="evenodd" clip-rule="evenodd" d="M38.5246 14.2416L38.5246 8.12309L9.28369 8.12309L9.28369 14.2416L19.7565 14.2416L19.7565 17.7466L20.9891 23.6999C18.0724 26.6935 20.931 33.0101 23.3858 36.799C23.4118 36.8391 23.4377 36.8789 23.4636 36.9184C23.5915 37.1137 23.718 37.3019 23.8425 37.4821C23.9707 37.2974 24.1013 37.1045 24.2333 36.9044C24.2559 36.87 24.2786 36.8355 24.3014 36.8007C26.8399 32.9191 29.843 26.443 26.846 23.5526L28.0979 17.7466L28.0979 14.2416L38.5246 14.2416ZM24.3108 29.4915L25.8098 28.041L23.9545 26.2458L22.0724 28.0671L23.5413 29.4884L23.4784 35.5032C22.3396 33.6004 21.2274 31.2672 20.7577 29.1083C20.4533 27.7092 20.4355 26.4577 20.7844 25.4628C21.1198 24.5064 21.8131 23.7264 23.0975 23.2542C23.66 23.0473 24.2938 23.0398 24.8554 23.2348C26.1171 23.673 26.785 24.4261 27.0997 25.3642C27.429 26.346 27.3908 27.5971 27.062 29.0071C26.5574 31.171 25.4136 33.5225 24.2485 35.4504L24.3108 29.4915ZM24.7187 28.041L23.9277 28.8064L23.1636 28.0671L23.9545 27.3017L24.7187 28.041Z" fill="white"/>
</g>
<defs>
<clipPath id="clip0_454_433">
<rect width="48" height="48" fill="white"/>
</clipPath>
</defs>
</svg>
