<svg width="24" height="24" viewBox="0 0 24 24" fill="none" xmlns="http://www.w3.org/2000/svg">
<path d="M9.00488 10.0912C9.00566 12.935 11.3186 15.2494 14.1615 15.2494C14.8822 15.2486 15.4682 14.6624 15.4682 13.9423C15.4682 13.8668 15.4627 13.7944 15.4503 13.7259C15.4238 13.5718 15.3717 13.4247 15.2939 13.29C15.2822 13.2705 15.2635 13.2581 15.2409 13.2542L13.3475 12.9537C13.3428 12.9529 13.3389 12.9529 13.335 12.9529C13.3171 12.9529 13.2992 12.9591 13.286 12.9716C13.1023 13.1374 12.97 13.3491 12.9039 13.585L12.872 13.6987L12.7622 13.6551C11.7746 13.2658 10.9855 12.4772 10.5979 11.4901L10.5551 11.3804L10.6688 11.3485C10.9046 11.2823 11.1163 11.15 11.282 10.9662C11.2968 10.9499 11.3038 10.9281 11.2999 10.9055L10.9995 9.01151C10.9964 8.98971 10.9832 8.97101 10.9637 8.95934C10.8291 8.88071 10.6828 8.82855 10.5287 8.80286C10.4586 8.79041 10.3855 8.78418 10.3116 8.78418C9.59246 8.78418 9.00566 9.37037 9.00488 10.0912Z" fill="white"/>
<path fill-rule="evenodd" clip-rule="evenodd" d="M16.9673 6.84965C18.2553 8.03526 19.0491 9.64279 19.2024 11.3757L19.2016 11.3764C19.2203 11.5796 19.2296 11.7898 19.2296 12V12.0374C19.2109 15.3389 16.8521 18.2075 13.6208 18.8607C13.4045 18.9043 13.1842 18.9385 12.9663 18.9619C12.7188 18.9875 12.4721 19 12.2317 19C11.3172 19 10.4285 18.8256 9.58876 18.4815L4.75977 18.9961L6.268 15.6565C5.59171 14.5573 5.2345 13.2954 5.2345 12C5.2345 8.14034 8.37392 5 12.2324 5C13.9905 5 15.6715 5.65703 16.9673 6.84965ZM7.10306 17.3006L9.77476 17.0157L9.77554 17.0172L9.8767 17.0663C9.94596 17.0998 10.0199 17.1325 10.0954 17.1628C10.7748 17.4462 11.4939 17.5894 12.234 17.5894C12.4418 17.5894 12.6511 17.5777 12.855 17.5544C13.0511 17.5334 13.248 17.5007 13.4403 17.4579C15.9587 16.9005 17.7587 14.7114 17.8179 12.1339L17.818 12.125C17.8188 12.0824 17.8194 12.0423 17.8194 12.0016C17.8194 11.849 17.8124 11.6941 17.8 11.5399C17.5642 8.66504 15.1182 6.41292 12.2324 6.41292C9.15216 6.41292 6.64622 8.91959 6.64622 12.0008C6.64622 13.1825 7.012 14.3128 7.70464 15.2696L7.90076 15.5327L7.10306 17.3006Z" fill="white"/>
</svg>
