<svg width="10" height="10" viewBox="0 0 10 10" fill="none" xmlns="http://www.w3.org/2000/svg">
<g clip-path="url(#clip0_862_4565)">
<path opacity="0.3" d="M4.9997 1.6668C3.15806 1.6668 1.66641 3.15845 1.66641 5.00009C1.66641 5.81258 1.95807 6.55424 2.4414 7.1334C3.14556 6.58341 4.03305 6.25008 4.9997 6.25008C5.96636 6.25008 6.85385 6.58341 7.55801 7.1334C8.04133 6.55424 8.333 5.81258 8.333 5.00009C8.333 3.15845 6.84135 1.6668 4.9997 1.6668ZM4.9997 5.41675C4.19554 5.41675 3.54138 4.76259 3.54138 3.95844C3.54138 3.15428 4.19554 2.50012 4.9997 2.50012C5.80386 2.50012 6.45802 3.15428 6.45802 3.95844C6.45802 4.76259 5.80386 5.41675 4.9997 5.41675Z" fill="#C5C8D1"/>
<path d="M5.00086 0.833073C2.70089 0.833073 0.834246 2.69972 0.834246 4.99969C0.834246 7.29966 2.70089 9.16631 5.00086 9.16631C7.30084 9.16631 9.16748 7.29966 9.16748 4.99969C9.16748 2.69972 7.30084 0.833073 5.00086 0.833073ZM5.00086 8.33298C4.27587 8.33298 3.60921 8.09965 3.06339 7.70799C3.60921 7.31633 4.27587 7.083 5.00086 7.083C5.72585 7.083 6.39251 7.31633 6.93834 7.70799C6.39251 8.09965 5.72585 8.33298 5.00086 8.33298ZM7.55917 7.133C6.85501 6.58301 5.96752 6.24968 5.00086 6.24968C4.03421 6.24968 3.14672 6.58301 2.44256 7.133C1.95923 6.55384 1.66757 5.81218 1.66757 4.99969C1.66757 3.15805 3.15922 1.6664 5.00086 1.6664C6.84251 1.6664 8.33416 3.15805 8.33416 4.99969C8.33416 5.81218 8.04249 6.55384 7.55917 7.133Z" fill="#C5C8D1"/>
<path d="M4.99969 2.47067C4.19553 2.47067 3.54137 3.12483 3.54137 3.92899C3.54137 4.73315 4.19553 5.3873 4.99969 5.3873C5.80385 5.3873 6.45801 4.73315 6.45801 3.92899C6.45801 3.12483 5.80385 2.47067 4.99969 2.47067ZM4.99969 4.55398C4.65386 4.55398 4.3747 4.27482 4.3747 3.92899C4.3747 3.58316 4.65386 3.30399 4.99969 3.30399C5.34552 3.30399 5.62468 3.58316 5.62468 3.92899C5.62468 4.27482 5.34552 4.55398 4.99969 4.55398Z" fill="#C5C8D1"/>
</g>
<defs>
<clipPath id="clip0_862_4565">
<rect width="9.36464" height="9.36464" fill="white" transform="scale(1.06783)"/>
</clipPath>
</defs>
</svg>
