<svg width="39" height="19" viewBox="0 0 39 19" fill="none" xmlns="http://www.w3.org/2000/svg">
<path d="M0.118313 0.11819H20.9184V18.3742H0.118313V0.11819Z" fill="white"/>
<path d="M0.118313 18.3742H0.236496V0.11819H0.118313H0.000130765V18.3742H0.118313Z" fill="#E6E7EB"/>
<g clip-path="url(#clip0_862_4474)">
<path opacity="0.3" d="M10.3479 6.09449C8.60672 6.09449 7.19641 7.5048 7.19641 9.24602C7.19641 10.0142 7.47216 10.7154 7.92914 11.263C8.5949 10.743 9.43399 10.4278 10.3479 10.4278C11.2619 10.4278 12.101 10.743 12.7667 11.263C13.2237 10.7154 13.4995 10.0142 13.4995 9.24602C13.4995 7.5048 12.0892 6.09449 10.3479 6.09449ZM10.3479 9.63996C9.58763 9.63996 8.96914 9.02148 8.96914 8.26117C8.96914 7.50086 9.58763 6.88237 10.3479 6.88237C11.1082 6.88237 11.7267 7.50086 11.7267 8.26117C11.7267 9.02148 11.1082 9.63996 10.3479 9.63996Z" fill="#C5C8D1"/>
<path d="M10.3466 5.30647C8.17202 5.30647 6.40716 7.07133 6.40716 9.24589C6.40716 11.4204 8.17202 13.1853 10.3466 13.1853C12.5211 13.1853 14.286 11.4204 14.286 9.24589C14.286 7.07133 12.5211 5.30647 10.3466 5.30647ZM10.3466 12.3974C9.66111 12.3974 9.03081 12.1768 8.51474 11.8065C9.03081 11.4362 9.66111 11.2156 10.3466 11.2156C11.032 11.2156 11.6623 11.4362 12.1784 11.8065C11.6623 12.1768 11.032 12.3974 10.3466 12.3974ZM12.7654 11.2629C12.0996 10.7429 11.2605 10.4277 10.3466 10.4277C9.43263 10.4277 8.59353 10.7429 7.92777 11.2629C7.4708 10.7153 7.19504 10.0141 7.19504 9.24589C7.19504 7.50467 8.60535 6.09436 10.3466 6.09436C12.0878 6.09436 13.4981 7.50467 13.4981 9.24589C13.4981 10.0141 13.2223 10.7153 12.7654 11.2629Z" fill="#C5C8D1"/>
<path d="M10.3479 6.85453C9.58762 6.85453 8.96913 7.47302 8.96913 8.23333C8.96913 8.99363 9.58762 9.61212 10.3479 9.61212C11.1082 9.61212 11.7267 8.99363 11.7267 8.23333C11.7267 7.47302 11.1082 6.85453 10.3479 6.85453ZM10.3479 8.82424C10.021 8.82424 9.75702 8.5603 9.75702 8.23333C9.75702 7.90635 10.021 7.64241 10.3479 7.64241C10.6749 7.64241 10.9388 7.90635 10.9388 8.23333C10.9388 8.5603 10.6749 8.82424 10.3479 8.82424Z" fill="#C5C8D1"/>
</g>
<rect x="20.9183" y="0.11819" width="17.9637" height="18.256" fill="white"/>
<rect x="20.9183" y="0.11819" width="17.9637" height="18.256" stroke="#E6E7EB" stroke-width="0.234116"/>
<g clip-path="url(#clip1_862_4474)">
<path opacity="0.3" d="M30.9086 7.98245H27.5995V8.45518H30.9086V7.98245Z" fill="#C5C8D1"/>
<path d="M30.9106 7.50991H30.6742V7.03718H30.2015V7.50991H28.3106V7.03718H27.8378V7.50991H27.6015C27.3391 7.50991 27.1311 7.72263 27.1311 7.98264L27.1287 11.2917C27.1287 11.5517 27.3391 11.7645 27.6015 11.7645H30.9106C31.1706 11.7645 31.3833 11.5517 31.3833 11.2917V7.98264C31.3833 7.72263 31.1706 7.50991 30.9106 7.50991ZM30.9106 11.2917H27.6015V8.9281H30.9106V11.2917ZM30.9106 8.45537H27.6015V7.98264H30.9106V8.45537ZM28.5469 9.87355H28.0742V9.40083H28.5469V9.87355ZM29.4924 9.87355H29.0197V9.40083H29.4924V9.87355ZM30.4379 9.87355H29.9651V9.40083H30.4379V9.87355ZM28.5469 10.819H28.0742V10.3463H28.5469V10.819ZM29.4924 10.819H29.0197V10.3463H29.4924V10.819ZM30.4379 10.819H29.9651V10.3463H30.4379V10.819Z" fill="#C5C8D1"/>
</g>
<circle cx="32.0919" cy="6.56448" r="0.94546" fill="#6A69F3"/>
<defs>
<clipPath id="clip0_862_4474">
<rect width="9.36464" height="9.36464" fill="white" transform="translate(5.61939 4.51883) scale(1.00961)"/>
</clipPath>
<clipPath id="clip1_862_4474">
<rect width="5.61878" height="5.61878" fill="white" transform="translate(26.4194 6.56429) scale(1.00961)"/>
</clipPath>
</defs>
</svg>
