<svg width="4" height="4" viewBox="0 0 4 4" fill="none" xmlns="http://www.w3.org/2000/svg">
<g clip-path="url(#clip0_862_4532)">
<path opacity="0.3" d="M3.06289 0.999804H0.805579V1.33314H3.06289V0.999804Z" fill="#C5C8D1"/>
<path d="M3.0647 0.666645H2.90346V0.333312H2.58099V0.666645H1.2911V0.333312H0.968622V0.666645H0.807385C0.628412 0.666645 0.486524 0.816646 0.486524 0.999979L0.484912 3.33332C0.484912 3.51665 0.628412 3.66665 0.807385 3.66665H3.0647C3.24206 3.66665 3.38717 3.51665 3.38717 3.33332V0.999979C3.38717 0.816646 3.24206 0.666645 3.0647 0.666645ZM3.0647 3.33332H0.807385V1.66665H3.0647V3.33332ZM3.0647 1.33331H0.807385V0.999979H3.0647V1.33331ZM1.45233 2.33331H1.12986V1.99998H1.45233V2.33331ZM2.09728 2.33331H1.77481V1.99998H2.09728V2.33331ZM2.74223 2.33331H2.41975V1.99998H2.74223V2.33331ZM1.45233 2.99998H1.12986V2.66665H1.45233V2.99998ZM2.09728 2.99998H1.77481V2.66665H2.09728V2.99998ZM2.74223 2.99998H2.41975V2.66665H2.74223V2.99998Z" fill="#C5C8D1"/>
</g>
<defs>
<clipPath id="clip0_862_4532">
<rect width="3.62381" height="3.74586" fill="white" transform="scale(1.06785)"/>
</clipPath>
</defs>
</svg>
