<svg width="1920" height="147" viewBox="0 0 1920 147" fill="none" xmlns="http://www.w3.org/2000/svg">
<path d="M792.822 77.5C791.782 78.3 790.335 78.7 788.482 78.7C786.589 78.7 785.055 78.0733 783.882 76.82C782.709 75.5533 782.122 73.9733 782.122 72.08C782.122 70.88 782.375 69.7667 782.882 68.74C783.389 67.7 784.102 66.8667 785.022 66.24C785.942 65.6133 787.035 65.3 788.302 65.3C789.382 65.3 790.282 65.44 791.002 65.72C791.735 66 792.369 66.3667 792.902 66.82L793.262 69.32L792.002 69.44L791.642 67.54C791.215 67.26 790.755 67.04 790.262 66.88C789.769 66.7067 789.155 66.62 788.422 66.62C786.995 66.62 785.842 67.1267 784.962 68.14C784.095 69.1533 783.662 70.4467 783.662 72.02C783.662 73.6333 784.109 74.9333 785.002 75.92C785.909 76.8933 787.135 77.38 788.682 77.38C789.815 77.38 790.769 77.1867 791.542 76.8L791.922 74.88L793.162 75L792.822 77.5Z" fill="white"/>
<path d="M803.772 74.04C803.772 75.3867 803.372 76.5 802.572 77.38C801.772 78.26 800.685 78.7 799.312 78.7C797.965 78.7 796.905 78.2733 796.132 77.42C795.372 76.5667 794.992 75.4667 794.992 74.12C794.992 72.8267 795.365 71.72 796.112 70.8C796.858 69.8667 797.952 69.4 799.392 69.4C800.845 69.4 801.938 69.86 802.672 70.78C803.405 71.6867 803.772 72.7733 803.772 74.04ZM802.292 74.02C802.292 73.0067 802.032 72.1867 801.512 71.56C801.005 70.92 800.285 70.6 799.352 70.6C798.418 70.6 797.698 70.9267 797.192 71.58C796.698 72.2333 796.452 73.0533 796.452 74.04C796.452 75.0133 796.698 75.8333 797.192 76.5C797.685 77.1667 798.405 77.5 799.352 77.5C800.298 77.5 801.025 77.1733 801.532 76.52C802.038 75.8533 802.292 75.02 802.292 74.02Z" fill="white"/>
<path d="M815.786 78.5H811.286V77.36H812.826V73.22C812.826 72.26 812.632 71.5867 812.246 71.2C811.859 70.8 811.366 70.6 810.766 70.6C809.966 70.6 809.319 70.8667 808.826 71.4C808.346 71.92 808.092 72.52 808.066 73.2V77.36H809.626V78.5H805.106V77.36H806.666V70.74H805.066V69.6H808.066V71.18C808.706 70.0067 809.746 69.42 811.186 69.42C812.052 69.42 812.779 69.6867 813.366 70.22C813.952 70.7533 814.246 71.6133 814.246 72.8V77.36H815.786V78.5Z" fill="white"/>
<path d="M823.291 76.1C823.051 77.8333 822.111 78.7 820.471 78.7C819.577 78.7 818.891 78.4467 818.411 77.94C817.944 77.4333 817.711 76.7467 817.711 75.88V70.72H816.271V69.6H817.711V66.74H819.111V69.6H822.591V70.72H819.111V75.7C819.111 76.2333 819.224 76.6667 819.451 77C819.691 77.32 820.077 77.48 820.611 77.48C820.957 77.48 821.277 77.3733 821.571 77.16C821.877 76.9467 822.097 76.48 822.231 75.76L823.291 76.1Z" fill="white"/>
<path d="M832.092 75.94C831.972 76.7 831.592 77.3533 830.952 77.9C830.312 78.4333 829.446 78.7 828.352 78.7C827.099 78.7 826.086 78.3067 825.312 77.52C824.539 76.7333 824.152 75.62 824.152 74.18C824.152 72.7933 824.519 71.6533 825.252 70.76C825.986 69.8667 826.979 69.42 828.232 69.42C829.459 69.42 830.392 69.8067 831.032 70.58C831.672 71.3533 831.999 72.2667 832.012 73.32C832.012 73.6667 831.972 74.02 831.892 74.38H825.632C825.712 76.46 826.652 77.5 828.452 77.5C829.159 77.5 829.712 77.3333 830.112 77C830.512 76.6667 830.779 76.2267 830.912 75.68L832.092 75.94ZM830.532 73.34C830.599 72.6733 830.439 72.0467 830.052 71.46C829.679 70.8733 829.059 70.58 828.192 70.58C827.366 70.58 826.759 70.8533 826.372 71.4C825.986 71.9467 825.746 72.5933 825.652 73.34H830.532Z" fill="white"/>
<path d="M841.207 66.02L837.767 68.1L837.327 67.48L840.407 64.84L841.207 66.02ZM843.707 78.5H840.707V76.82C840.427 77.38 840.014 77.8333 839.467 78.18C838.934 78.5267 838.314 78.7 837.607 78.7C836.74 78.7 836.007 78.4333 835.407 77.9C834.82 77.3533 834.527 76.4867 834.527 75.3V70.74H832.967V69.6H835.927V74.9C835.927 75.86 836.127 76.5333 836.527 76.92C836.927 77.3067 837.44 77.5 838.067 77.5C838.827 77.5 839.447 77.2133 839.927 76.64C840.42 76.0667 840.68 75.46 840.707 74.82V70.74H838.847V69.6H842.107V77.36H843.707V78.5Z" fill="white"/>
<path d="M854.717 78.5H851.777V76.7C851.484 77.2333 851.084 77.7 850.577 78.1C850.071 78.5 849.411 78.7 848.597 78.7C847.451 78.7 846.524 78.3133 845.817 77.54C845.124 76.7533 844.777 75.6667 844.777 74.28C844.777 73.0933 845.084 71.9867 845.697 70.96C846.311 69.9333 847.344 69.42 848.797 69.42C850.184 69.42 851.177 69.96 851.777 71.04V65.88H849.617V64.74H853.177V77.36H854.717V78.5ZM851.777 74.56V73.14C851.751 72.3933 851.477 71.7867 850.957 71.32C850.437 70.8533 849.824 70.62 849.117 70.62C848.131 70.62 847.404 70.98 846.937 71.7C846.484 72.42 846.257 73.2467 846.257 74.18C846.257 75.2733 846.511 76.1 847.017 76.66C847.537 77.22 848.184 77.5 848.957 77.5C849.757 77.5 850.417 77.18 850.937 76.54C851.471 75.8867 851.751 75.2267 851.777 74.56Z" fill="white"/>
<path d="M864.514 74.04C864.514 75.3867 864.114 76.5 863.314 77.38C862.514 78.26 861.427 78.7 860.054 78.7C858.707 78.7 857.647 78.2733 856.874 77.42C856.114 76.5667 855.734 75.4667 855.734 74.12C855.734 72.8267 856.107 71.72 856.854 70.8C857.601 69.8667 858.694 69.4 860.134 69.4C861.587 69.4 862.681 69.86 863.414 70.78C864.147 71.6867 864.514 72.7733 864.514 74.04ZM863.034 74.02C863.034 73.0067 862.774 72.1867 862.254 71.56C861.747 70.92 861.027 70.6 860.094 70.6C859.161 70.6 858.441 70.9267 857.934 71.58C857.441 72.2333 857.194 73.0533 857.194 74.04C857.194 75.0133 857.441 75.8333 857.934 76.5C858.427 77.1667 859.147 77.5 860.094 77.5C861.041 77.5 861.767 77.1733 862.274 76.52C862.781 75.8533 863.034 75.02 863.034 74.02Z" fill="white"/>
<path d="M880.019 73.8C880.019 74.5867 879.879 75.36 879.599 76.12C879.332 76.8667 878.899 77.4867 878.299 77.98C877.712 78.46 876.932 78.7 875.959 78.7C874.612 78.7 873.632 78.2 873.019 77.2V81.62H875.079V82.76H870.039V81.62H871.619V70.74H870.019V69.6H873.019V71.46C873.286 70.9267 873.672 70.4533 874.179 70.04C874.686 69.6267 875.352 69.42 876.179 69.42C877.326 69.42 878.252 69.8067 878.959 70.58C879.666 71.3533 880.019 72.4267 880.019 73.8ZM878.539 73.92C878.539 72.8533 878.279 72.04 877.759 71.48C877.239 70.9067 876.592 70.62 875.819 70.62C875.019 70.62 874.359 70.94 873.839 71.58C873.319 72.2067 873.046 72.86 873.019 73.54V74.86C873.019 75.6067 873.279 76.2333 873.799 76.74C874.319 77.2467 874.946 77.5 875.679 77.5C876.679 77.5 877.406 77.14 877.859 76.42C878.312 75.7 878.539 74.8667 878.539 73.92Z" fill="white"/>
<path d="M886.455 69.44C887.095 69.44 887.602 69.5933 887.975 69.9L888.315 72.14L887.175 72.28L886.835 70.76C886.609 70.68 886.382 70.64 886.155 70.64C885.635 70.64 885.202 70.86 884.855 71.3C884.509 71.7267 884.335 72.2867 884.335 72.98V77.36H886.395V78.5H881.375V77.36H882.935V70.74H881.335V69.6H884.255V71.2C884.429 70.7067 884.709 70.2933 885.095 69.96C885.495 69.6133 885.949 69.44 886.455 69.44Z" fill="white"/>
<path d="M898.694 74.04C898.694 75.3867 898.294 76.5 897.494 77.38C896.694 78.26 895.607 78.7 894.234 78.7C892.887 78.7 891.827 78.2733 891.054 77.42C890.294 76.5667 889.914 75.4667 889.914 74.12C889.914 72.8267 890.287 71.72 891.034 70.8C891.78 69.8667 892.874 69.4 894.314 69.4C895.767 69.4 896.86 69.86 897.594 70.78C898.327 71.6867 898.694 72.7733 898.694 74.04ZM897.214 74.02C897.214 73.0067 896.954 72.1867 896.434 71.56C895.927 70.92 895.207 70.6 894.274 70.6C893.34 70.6 892.62 70.9267 892.114 71.58C891.62 72.2333 891.374 73.0533 891.374 74.04C891.374 75.0133 891.62 75.8333 892.114 76.5C892.607 77.1667 893.327 77.5 894.274 77.5C895.22 77.5 895.947 77.1733 896.454 76.52C896.96 75.8533 897.214 75.02 897.214 74.02Z" fill="white"/>
<path d="M910.128 78.5H907.188V76.7C906.894 77.2333 906.494 77.7 905.988 78.1C905.481 78.5 904.821 78.7 904.008 78.7C902.861 78.7 901.934 78.3133 901.228 77.54C900.534 76.7533 900.188 75.6667 900.188 74.28C900.188 73.0933 900.494 71.9867 901.108 70.96C901.721 69.9333 902.754 69.42 904.208 69.42C905.594 69.42 906.588 69.96 907.188 71.04V65.88H905.028V64.74H908.588V77.36H910.128V78.5ZM907.188 74.56V73.14C907.161 72.3933 906.888 71.7867 906.368 71.32C905.848 70.8533 905.234 70.62 904.528 70.62C903.541 70.62 902.814 70.98 902.348 71.7C901.894 72.42 901.668 73.2467 901.668 74.18C901.668 75.2733 901.921 76.1 902.428 76.66C902.948 77.22 903.594 77.5 904.368 77.5C905.168 77.5 905.828 77.18 906.348 76.54C906.881 75.8867 907.161 75.2267 907.188 74.56Z" fill="white"/>
<path d="M921.324 78.5H918.324V76.82C918.044 77.38 917.631 77.8333 917.084 78.18C916.551 78.5267 915.931 78.7 915.224 78.7C914.357 78.7 913.624 78.4333 913.024 77.9C912.437 77.3533 912.144 76.4867 912.144 75.3V70.74H910.584V69.6H913.544V74.9C913.544 75.86 913.744 76.5333 914.144 76.92C914.544 77.3067 915.057 77.5 915.684 77.5C916.444 77.5 917.064 77.2133 917.544 76.64C918.037 76.0667 918.297 75.46 918.324 74.82V70.74H916.464V69.6H919.724V77.36H921.324V78.5Z" fill="white"/>
<path d="M929.875 78.5H922.395L922.335 77.64L927.935 70.74H923.735L923.475 72.52L922.355 72.38L922.595 69.6H929.755L929.815 70.44L924.175 77.36H928.755L929.215 75.56L930.355 75.74L929.875 78.5Z" fill="white"/>
<path d="M932.992 67.3V65.48H934.512V67.3H932.992ZM936.092 78.5H931.572V77.36H933.132V70.74H931.532V69.6H934.532V77.36H936.092V78.5Z" fill="white"/>
<path d="M947.198 78.5H944.258V76.7C943.965 77.2333 943.565 77.7 943.058 78.1C942.551 78.5 941.891 78.7 941.078 78.7C939.931 78.7 939.005 78.3133 938.298 77.54C937.605 76.7533 937.258 75.6667 937.258 74.28C937.258 73.0933 937.565 71.9867 938.178 70.96C938.791 69.9333 939.825 69.42 941.278 69.42C942.665 69.42 943.658 69.96 944.258 71.04V65.88H942.098V64.74H945.658V77.36H947.198V78.5ZM944.258 74.56V73.14C944.231 72.3933 943.958 71.7867 943.438 71.32C942.918 70.8533 942.305 70.62 941.598 70.62C940.611 70.62 939.885 70.98 939.418 71.7C938.965 72.42 938.738 73.2467 938.738 74.18C938.738 75.2733 938.991 76.1 939.498 76.66C940.018 77.22 940.665 77.5 941.438 77.5C942.238 77.5 942.898 77.18 943.418 76.54C943.951 75.8867 944.231 75.2267 944.258 74.56Z" fill="white"/>
<path d="M956.994 74.04C956.994 75.3867 956.594 76.5 955.794 77.38C954.994 78.26 953.908 78.7 952.534 78.7C951.188 78.7 950.128 78.2733 949.354 77.42C948.594 76.5667 948.214 75.4667 948.214 74.12C948.214 72.8267 948.588 71.72 949.334 70.8C950.081 69.8667 951.174 69.4 952.614 69.4C954.068 69.4 955.161 69.86 955.894 70.78C956.628 71.6867 956.994 72.7733 956.994 74.04ZM955.514 74.02C955.514 73.0067 955.254 72.1867 954.734 71.56C954.228 70.92 953.508 70.6 952.574 70.6C951.641 70.6 950.921 70.9267 950.414 71.58C949.921 72.2333 949.674 73.0533 949.674 74.04C949.674 75.0133 949.921 75.8333 950.414 76.5C950.908 77.1667 951.628 77.5 952.574 77.5C953.521 77.5 954.248 77.1733 954.754 76.52C955.261 75.8533 955.514 75.02 955.514 74.02Z" fill="white"/>
<path d="M972.5 73.8C972.5 74.5867 972.36 75.36 972.08 76.12C971.813 76.8667 971.38 77.4867 970.78 77.98C970.193 78.46 969.413 78.7 968.44 78.7C967.093 78.7 966.113 78.2 965.5 77.2V81.62H967.56V82.76H962.52V81.62H964.1V70.74H962.5V69.6H965.5V71.46C965.766 70.9267 966.153 70.4533 966.66 70.04C967.166 69.6267 967.833 69.42 968.66 69.42C969.806 69.42 970.733 69.8067 971.44 70.58C972.146 71.3533 972.5 72.4267 972.5 73.8ZM971.02 73.92C971.02 72.8533 970.76 72.04 970.24 71.48C969.72 70.9067 969.073 70.62 968.3 70.62C967.5 70.62 966.84 70.94 966.32 71.58C965.8 72.2067 965.526 72.86 965.5 73.54V74.86C965.5 75.6067 965.76 76.2333 966.28 76.74C966.8 77.2467 967.426 77.5 968.16 77.5C969.16 77.5 969.886 77.14 970.34 76.42C970.793 75.7 971.02 74.8667 971.02 73.92Z" fill="white"/>
<path d="M982.776 74.04C982.776 75.3867 982.376 76.5 981.576 77.38C980.776 78.26 979.689 78.7 978.316 78.7C976.969 78.7 975.909 78.2733 975.136 77.42C974.376 76.5667 973.996 75.4667 973.996 74.12C973.996 72.8267 974.369 71.72 975.116 70.8C975.862 69.8667 976.956 69.4 978.396 69.4C979.849 69.4 980.942 69.86 981.676 70.78C982.409 71.6867 982.776 72.7733 982.776 74.04ZM981.296 74.02C981.296 73.0067 981.036 72.1867 980.516 71.56C980.009 70.92 979.289 70.6 978.356 70.6C977.422 70.6 976.702 70.9267 976.196 71.58C975.702 72.2333 975.456 73.0533 975.456 74.04C975.456 75.0133 975.702 75.8333 976.196 76.5C976.689 77.1667 977.409 77.5 978.356 77.5C979.302 77.5 980.029 77.1733 980.536 76.52C981.042 75.8533 981.296 75.02 981.296 74.02Z" fill="white"/>
<path d="M989.19 69.44C989.83 69.44 990.336 69.5933 990.71 69.9L991.05 72.14L989.91 72.28L989.57 70.76C989.343 70.68 989.116 70.64 988.89 70.64C988.37 70.64 987.936 70.86 987.59 71.3C987.243 71.7267 987.07 72.2867 987.07 72.98V77.36H989.13V78.5H984.11V77.36H985.67V70.74H984.07V69.6H986.99V71.2C987.163 70.7067 987.443 70.2933 987.83 69.96C988.23 69.6133 988.683 69.44 989.19 69.44Z" fill="white"/>
<path d="M1091.46 73.3C1091.46 74.7933 1090.93 76.06 1089.88 77.1C1088.84 78.1267 1087.58 78.64 1086.1 78.64C1084.62 78.64 1083.35 78.1267 1082.3 77.1C1081.26 76.06 1080.74 74.7933 1080.74 73.3C1080.74 71.8067 1081.26 70.54 1082.3 69.5C1083.34 68.4467 1084.61 67.92 1086.12 67.92C1087.62 67.92 1088.89 68.4467 1089.92 69.5C1090.94 70.54 1091.46 71.8067 1091.46 73.3ZM1090.6 73.3C1090.6 72.0467 1090.18 70.98 1089.34 70.1C1088.51 69.2067 1087.44 68.76 1086.12 68.76C1084.78 68.76 1083.7 69.2067 1082.86 70.1C1082.02 70.98 1081.6 72.0467 1081.6 73.3C1081.6 74.5533 1082.02 75.62 1082.86 76.5C1083.71 77.38 1084.79 77.82 1086.1 77.82C1087.38 77.82 1088.44 77.38 1089.3 76.5C1090.16 75.62 1090.6 74.5533 1090.6 73.3ZM1088.44 76.06C1087.9 76.4733 1087.15 76.68 1086.18 76.68C1085.22 76.68 1084.43 76.3667 1083.82 75.74C1083.22 75.1 1082.92 74.28 1082.92 73.28C1082.92 72.3067 1083.21 71.4867 1083.8 70.82C1084.38 70.1533 1085.14 69.82 1086.08 69.82C1086.64 69.82 1087.11 69.8933 1087.5 70.04C1087.88 70.1733 1088.21 70.3533 1088.48 70.58L1088.66 71.88L1087.94 71.96L1087.76 70.96C1087.53 70.8133 1087.3 70.7067 1087.08 70.64C1086.85 70.56 1086.55 70.52 1086.18 70.52C1085.44 70.52 1084.86 70.7733 1084.44 71.28C1084.02 71.7733 1083.82 72.4333 1083.82 73.26C1083.82 74.0867 1084.03 74.7467 1084.46 75.24C1084.9 75.72 1085.51 75.96 1086.3 75.96C1086.88 75.96 1087.35 75.8733 1087.7 75.7L1087.9 74.68L1088.62 74.76L1088.44 76.06Z" fill="white"/>
<path d="M1098.39 68.76C1098.87 68.48 1099.44 68.2667 1100.09 68.12C1100.76 67.96 1101.38 67.88 1101.97 67.88C1103.28 67.88 1104.2 68.2133 1104.75 68.88C1105.31 69.5467 1105.59 70.2467 1105.59 70.98C1105.59 71.9 1105.25 72.7533 1104.57 73.54C1103.9 74.3133 1103.11 75.0133 1102.19 75.64C1101.28 76.2533 1100.46 76.78 1099.73 77.22H1104.93L1105.11 75.62L1106.33 75.72L1106.11 78.5H1097.99L1097.83 77.36C1099.72 76.08 1101.23 74.9733 1102.35 74.04C1103.47 73.0933 1104.03 72.1267 1104.03 71.14C1104.03 69.8067 1103.24 69.14 1101.65 69.14C1101.37 69.14 1101.03 69.18 1100.63 69.26C1100.23 69.34 1099.86 69.4533 1099.53 69.6L1099.21 71.1L1098.05 70.96L1098.39 68.76Z" fill="white"/>
<path d="M1117.74 73.32C1117.74 74.9733 1117.32 76.2867 1116.48 77.26C1115.64 78.22 1114.44 78.7 1112.88 78.7C1111.31 78.7 1110.12 78.22 1109.3 77.26C1108.5 76.2867 1108.1 74.9933 1108.1 73.38C1108.1 71.8067 1108.51 70.5 1109.32 69.46C1110.15 68.4067 1111.36 67.88 1112.96 67.88C1114.6 67.88 1115.81 68.4067 1116.58 69.46C1117.36 70.5 1117.74 71.7867 1117.74 73.32ZM1116.2 73.26C1116.2 72.0067 1115.94 71.0133 1115.4 70.28C1114.88 69.5467 1114.06 69.18 1112.94 69.18C1111.84 69.18 1111.01 69.54 1110.46 70.26C1109.93 70.9667 1109.66 71.9733 1109.66 73.28C1109.66 74.5867 1109.94 75.6 1110.48 76.32C1111.03 77.04 1111.84 77.4 1112.92 77.4C1115.11 77.4 1116.2 76.02 1116.2 73.26Z" fill="white"/>
<path d="M1120.21 68.76C1120.69 68.48 1121.25 68.2667 1121.91 68.12C1122.57 67.96 1123.2 67.88 1123.79 67.88C1125.09 67.88 1126.02 68.2133 1126.57 68.88C1127.13 69.5467 1127.41 70.2467 1127.41 70.98C1127.41 71.9 1127.07 72.7533 1126.39 73.54C1125.72 74.3133 1124.93 75.0133 1124.01 75.64C1123.1 76.2533 1122.28 76.78 1121.55 77.22H1126.75L1126.93 75.62L1128.15 75.72L1127.93 78.5H1119.81L1119.65 77.36C1121.54 76.08 1123.05 74.9733 1124.17 74.04C1125.29 73.0933 1125.85 72.1267 1125.85 71.14C1125.85 69.8067 1125.05 69.14 1123.47 69.14C1123.19 69.14 1122.85 69.18 1122.45 69.26C1122.05 69.34 1121.68 69.4533 1121.35 69.6L1121.03 71.1L1119.87 70.96L1120.21 68.76Z" fill="white"/>
<path d="M1130.3 68.92C1130.67 68.6667 1131.16 68.4333 1131.76 68.22C1132.37 67.9933 1133.01 67.88 1133.68 67.88C1134.73 67.88 1135.6 68.1533 1136.28 68.7C1136.97 69.2467 1137.32 70.0333 1137.32 71.06C1137.32 71.7133 1137.13 72.32 1136.76 72.88C1136.4 73.4267 1135.75 73.8467 1134.82 74.14V74.22C1136.01 74.42 1136.81 74.8267 1137.24 75.44C1137.66 76.0533 1137.88 76.74 1137.88 77.5C1137.88 78.66 1137.5 79.5867 1136.74 80.28C1135.99 80.9733 1134.96 81.32 1133.66 81.32C1132.43 81.32 1131.5 81.0467 1130.86 80.5C1130.22 79.9533 1129.82 79.2867 1129.66 78.5L1130.8 78.1C1130.98 78.6333 1131.29 79.0933 1131.72 79.48C1132.14 79.8667 1132.78 80.06 1133.62 80.06C1134.68 80.06 1135.4 79.7867 1135.76 79.24C1136.13 78.6933 1136.32 78.0867 1136.32 77.42C1136.32 76.6333 1136.04 76.02 1135.48 75.58C1134.92 75.14 1133.94 74.9 1132.54 74.86V73.78C1133.79 73.7267 1134.64 73.4333 1135.1 72.9C1135.55 72.3533 1135.78 71.8 1135.78 71.24C1135.78 70.5867 1135.56 70.0733 1135.14 69.7C1134.72 69.3267 1134.14 69.14 1133.4 69.14C1132.74 69.14 1132.11 69.3067 1131.48 69.64L1131.12 71.26L1129.96 71.12L1130.3 68.92Z" fill="white"/>
<path d="M998.522 78.52V64.78H1001.58V78.52H998.522ZM996.322 71.4V68.8H1003.78V71.4H996.322Z" fill="white"/>
<path d="M1011.55 78.52V72.98C1011.55 72.4733 1011.39 72.0667 1011.07 71.76C1010.76 71.44 1010.37 71.28 1009.89 71.28C1009.56 71.28 1009.26 71.3533 1009.01 71.5C1008.76 71.6333 1008.56 71.8333 1008.41 72.1C1008.26 72.3533 1008.19 72.6467 1008.19 72.98L1007.01 72.4C1007.01 71.64 1007.17 70.9733 1007.49 70.4C1007.81 69.8267 1008.26 69.3867 1008.83 69.08C1009.4 68.76 1010.06 68.6 1010.81 68.6C1011.57 68.6 1012.24 68.76 1012.81 69.08C1013.38 69.3867 1013.82 69.82 1014.13 70.38C1014.45 70.9267 1014.61 71.5667 1014.61 72.3V78.52H1011.55ZM1005.13 78.52V64H1008.19V78.52H1005.13Z" fill="white"/>
<path d="M1021.38 78.74C1020.32 78.74 1019.38 78.5267 1018.56 78.1C1017.74 77.66 1017.1 77.0533 1016.64 76.28C1016.17 75.5067 1015.94 74.6333 1015.94 73.66C1015.94 72.6867 1016.16 71.82 1016.62 71.06C1017.08 70.2867 1017.71 69.68 1018.5 69.24C1019.28 68.8 1020.17 68.58 1021.16 68.58C1022.12 68.58 1022.96 68.7867 1023.7 69.2C1024.43 69.6133 1025 70.1867 1025.42 70.92C1025.84 71.6533 1026.06 72.4933 1026.06 73.44C1026.06 73.6133 1026.04 73.8 1026.02 74C1026 74.1867 1025.97 74.4067 1025.92 74.66L1017.54 74.68V72.58L1024.62 72.56L1023.3 73.44C1023.28 72.88 1023.2 72.42 1023.04 72.06C1022.88 71.6867 1022.64 71.4067 1022.32 71.22C1022.01 71.02 1021.63 70.92 1021.18 70.92C1020.7 70.92 1020.28 71.0333 1019.92 71.26C1019.57 71.4733 1019.3 71.78 1019.1 72.18C1018.91 72.58 1018.82 73.0667 1018.82 73.64C1018.82 74.2133 1018.92 74.7067 1019.12 75.12C1019.33 75.52 1019.62 75.8333 1020 76.06C1020.38 76.2733 1020.84 76.38 1021.36 76.38C1021.84 76.38 1022.27 76.3 1022.66 76.14C1023.04 75.9667 1023.38 75.7133 1023.68 75.38L1025.36 77.06C1024.88 77.62 1024.3 78.04 1023.62 78.32C1022.94 78.6 1022.19 78.74 1021.38 78.74Z" fill="white"/>
<path d="M1027.53 78.52V68.8H1030.59V78.52H1027.53ZM1033.75 78.52V72.84C1033.75 72.3467 1033.6 71.9667 1033.29 71.7C1033 71.42 1032.63 71.28 1032.19 71.28C1031.89 71.28 1031.61 71.3467 1031.37 71.48C1031.13 71.6 1030.94 71.7733 1030.79 72C1030.66 72.2267 1030.59 72.5067 1030.59 72.84L1029.41 72.32C1029.41 71.5467 1029.58 70.8867 1029.91 70.34C1030.25 69.78 1030.7 69.3533 1031.27 69.06C1031.85 68.7533 1032.49 68.6 1033.21 68.6C1033.89 68.6 1034.5 68.7533 1035.03 69.06C1035.58 69.3667 1036.01 69.7933 1036.33 70.34C1036.65 70.8867 1036.81 71.54 1036.81 72.3V78.52H1033.75ZM1039.97 78.52V72.84C1039.97 72.3467 1039.82 71.9667 1039.51 71.7C1039.22 71.42 1038.85 71.28 1038.41 71.28C1038.11 71.28 1037.83 71.3467 1037.59 71.48C1037.35 71.6 1037.16 71.7733 1037.01 72C1036.88 72.2267 1036.81 72.5067 1036.81 72.84L1035.05 72.6C1035.08 71.7733 1035.27 71.0667 1035.63 70.48C1036.01 69.88 1036.49 69.42 1037.09 69.1C1037.71 68.7667 1038.39 68.6 1039.15 68.6C1039.9 68.6 1040.56 68.76 1041.13 69.08C1041.72 69.3867 1042.18 69.8333 1042.51 70.42C1042.86 70.9933 1043.03 71.6867 1043.03 72.5V78.52H1039.97Z" fill="white"/>
<path d="M1049.05 78.72C1048.16 78.72 1047.36 78.5 1046.65 78.06C1045.96 77.62 1045.41 77.02 1044.99 76.26C1044.59 75.5 1044.39 74.6333 1044.39 73.66C1044.39 72.6867 1044.59 71.82 1044.99 71.06C1045.41 70.3 1045.96 69.7 1046.65 69.26C1047.36 68.82 1048.16 68.6 1049.05 68.6C1049.71 68.6 1050.29 68.7267 1050.81 68.98C1051.35 69.2333 1051.78 69.5867 1052.11 70.04C1052.45 70.48 1052.63 70.9867 1052.67 71.56V75.76C1052.63 76.3333 1052.45 76.8467 1052.11 77.3C1051.79 77.74 1051.37 78.0867 1050.83 78.34C1050.3 78.5933 1049.71 78.72 1049.05 78.72ZM1049.67 75.96C1050.33 75.96 1050.85 75.7467 1051.25 75.32C1051.65 74.88 1051.85 74.3267 1051.85 73.66C1051.85 73.2067 1051.76 72.8067 1051.57 72.46C1051.4 72.1133 1051.15 71.8467 1050.81 71.66C1050.49 71.46 1050.12 71.36 1049.69 71.36C1049.27 71.36 1048.89 71.46 1048.55 71.66C1048.23 71.8467 1047.97 72.1133 1047.77 72.46C1047.59 72.8067 1047.49 73.2067 1047.49 73.66C1047.49 74.1 1047.59 74.4933 1047.77 74.84C1047.96 75.1867 1048.22 75.46 1048.55 75.66C1048.89 75.86 1049.26 75.96 1049.67 75.96ZM1051.73 78.52V75.9L1052.19 73.54L1051.73 71.18V68.8H1054.73V78.52H1051.73Z" fill="white"/>
<path d="M1060.43 78.76C1059.85 78.76 1059.29 78.6867 1058.73 78.54C1058.18 78.3933 1057.67 78.1867 1057.19 77.92C1056.72 77.64 1056.32 77.32 1055.99 76.96L1057.73 75.2C1058.05 75.5467 1058.43 75.82 1058.87 76.02C1059.31 76.2067 1059.79 76.3 1060.31 76.3C1060.67 76.3 1060.94 76.2467 1061.13 76.14C1061.33 76.0333 1061.43 75.8867 1061.43 75.7C1061.43 75.46 1061.31 75.28 1061.07 75.16C1060.84 75.0267 1060.55 74.9133 1060.19 74.82C1059.83 74.7133 1059.45 74.6 1059.05 74.48C1058.65 74.36 1058.27 74.1933 1057.91 73.98C1057.55 73.7667 1057.25 73.4733 1057.03 73.1C1056.8 72.7133 1056.69 72.2267 1056.69 71.64C1056.69 71.0133 1056.85 70.4733 1057.17 70.02C1057.49 69.5533 1057.94 69.1867 1058.53 68.92C1059.11 68.6533 1059.8 68.52 1060.59 68.52C1061.41 68.52 1062.17 68.6667 1062.87 68.96C1063.57 69.24 1064.15 69.66 1064.59 70.22L1062.85 71.98C1062.54 71.62 1062.19 71.3667 1061.81 71.22C1061.43 71.0733 1061.07 71 1060.71 71C1060.36 71 1060.1 71.0533 1059.93 71.16C1059.75 71.2533 1059.67 71.3933 1059.67 71.58C1059.67 71.78 1059.78 71.94 1060.01 72.06C1060.23 72.18 1060.53 72.2867 1060.89 72.38C1061.25 72.4733 1061.63 72.5867 1062.03 72.72C1062.43 72.8533 1062.81 73.0333 1063.17 73.26C1063.53 73.4867 1063.82 73.7933 1064.05 74.18C1064.27 74.5533 1064.39 75.0467 1064.39 75.66C1064.39 76.6067 1064.03 77.36 1063.31 77.92C1062.6 78.48 1061.64 78.76 1060.43 78.76Z" fill="white"/>
<path d="M1070.37 78.74C1069.48 78.74 1068.68 78.56 1067.99 78.2C1067.31 77.8267 1066.77 77.32 1066.39 76.68C1066 76.0267 1065.81 75.28 1065.81 74.44V68.8H1068.87V74.4C1068.87 74.7333 1068.92 75.02 1069.03 75.26C1069.15 75.5 1069.32 75.6867 1069.55 75.82C1069.77 75.9533 1070.05 76.02 1070.37 76.02C1070.82 76.02 1071.18 75.88 1071.45 75.6C1071.71 75.3067 1071.85 74.9067 1071.85 74.4V68.8H1074.91V74.42C1074.91 75.2733 1074.71 76.0267 1074.33 76.68C1073.94 77.32 1073.41 77.8267 1072.73 78.2C1072.05 78.56 1071.26 78.74 1070.37 78.74Z" fill="white"/>
</svg>
