<svg width="152" height="24" viewBox="0 0 152 24" fill="none" xmlns="http://www.w3.org/2000/svg">
<path d="M15.5829 5.12323H8.41011C6.4285 5.12323 4.81641 6.73579 4.81641 8.71799V15.282C4.81641 17.2642 6.4285 18.8767 8.41011 18.8767H15.5829C17.5645 18.8767 19.1766 17.2642 19.1766 15.282V8.71799C19.1766 6.73579 17.5645 5.12323 15.5829 5.12323ZM6.08415 8.71799C6.08415 7.43525 7.12774 6.39134 8.41011 6.39134H15.5829C16.8652 6.39134 17.9088 7.43525 17.9088 8.71799V15.282C17.9088 16.5647 16.8652 17.6086 15.5829 17.6086H8.41011C7.12774 17.6086 6.08415 16.5647 6.08415 15.282V8.71799Z" fill="white"/>
<path d="M11.9966 15.3429C13.8393 15.3429 15.3393 13.8433 15.3393 11.9992C15.3393 10.1551 13.8401 8.65546 11.9966 8.65546C10.153 8.65546 8.65381 10.1551 8.65381 11.9992C8.65381 13.8433 10.153 15.3429 11.9966 15.3429ZM11.9966 9.92438C13.1409 9.92438 14.0716 10.8554 14.0716 12C14.0716 13.1446 13.1409 14.0756 11.9966 14.0756C10.8523 14.0756 9.92155 13.1446 9.92155 12C9.92155 10.8554 10.8523 9.92438 11.9966 9.92438Z" fill="white"/>
<path d="M15.6487 9.19564C16.1449 9.19564 16.5494 8.7919 16.5494 8.29473C16.5494 7.79756 16.1457 7.3938 15.6487 7.3938C15.1517 7.3938 14.748 7.79756 14.748 8.29473C14.748 8.7919 15.1517 9.19564 15.6487 9.19564Z" fill="white"/>
<path d="M46.2499 15.3909C43.2831 15.3909 40.8695 12.9757 40.8687 10.0081C40.8695 9.25583 41.4818 8.6441 42.2322 8.6441C42.3094 8.6441 42.3857 8.6506 42.4588 8.6636C42.6196 8.69041 42.7723 8.74484 42.9128 8.82689C42.9331 8.83907 42.9469 8.85858 42.9502 8.88133L43.2636 10.8578C43.2677 10.8814 43.2604 10.9041 43.245 10.9212C43.072 11.1129 42.8511 11.251 42.605 11.3201L42.4864 11.3534L42.5311 11.4679C42.9355 12.498 43.759 13.321 44.7896 13.7271L44.9042 13.7726L44.9374 13.654C45.0065 13.4079 45.1445 13.1869 45.3362 13.0139C45.35 13.0009 45.3687 12.9944 45.3874 12.9944C45.3914 12.9944 45.3955 12.9944 45.4004 12.9952L47.3763 13.3088C47.3998 13.3128 47.4193 13.3258 47.4315 13.3461C47.5127 13.4867 47.5672 13.6402 47.5948 13.8011C47.6078 13.8725 47.6134 13.9481 47.6134 14.0269C47.6134 14.7783 47.0019 15.3901 46.2499 15.3909Z" fill="white"/>
<path d="M51.5111 11.3485C51.3511 9.54013 50.5227 7.86258 49.1786 6.62533C47.8264 5.38077 46.0722 4.69513 44.2376 4.69513C40.211 4.69513 36.9349 7.97224 36.9349 12C36.9349 13.3518 37.3076 14.6686 38.0134 15.8157L36.4395 19.3008L41.4788 18.7638C42.3551 19.1229 43.2825 19.3049 44.2368 19.3049C44.4877 19.3049 44.7452 19.2919 45.0034 19.2651C45.2308 19.2407 45.4607 19.205 45.6864 19.1595C49.0584 18.4779 51.52 15.4843 51.5395 12.039V12C51.5395 11.7807 51.5297 11.5613 51.5103 11.3493L51.5111 11.3485ZM41.6729 17.2341L38.8848 17.5315L39.7172 15.6866L39.5507 15.4632C39.5386 15.4469 39.5264 15.4307 39.5126 15.412C38.7898 14.4136 38.4081 13.234 38.4081 12.0008C38.4081 8.78543 41.0231 6.16958 44.2376 6.16958C47.249 6.16958 49.8015 8.51979 50.0476 11.5199C50.0606 11.6807 50.0679 11.8424 50.0679 12.0016C50.0679 12.0471 50.0671 12.0918 50.0663 12.1397C50.0046 14.8295 48.1261 17.1139 45.498 17.6956C45.2974 17.7402 45.0919 17.7744 44.8873 17.7963C44.6745 17.8207 44.456 17.8329 44.2392 17.8329C43.4669 17.8329 42.7165 17.6834 42.0075 17.3877C41.9287 17.356 41.8515 17.3219 41.7792 17.2869L41.6737 17.2358L41.6729 17.2341Z" fill="white"/>
<path d="M75.0854 12.435C74.884 12.1824 74.6534 11.989 74.3951 11.8582C74.6233 11.7193 74.8198 11.5487 74.9823 11.3456C75.256 11.0028 75.3948 10.573 75.3948 10.0677C75.3948 9.64613 75.2836 9.25863 75.0635 8.91662C74.8442 8.57461 74.5177 8.30002 74.093 8.10018C73.6772 7.9044 73.1761 7.8053 72.6052 7.8053H69.3574V16.1947H72.7546C73.3109 16.1947 73.8079 16.0931 74.231 15.8933C74.6623 15.6902 74.9985 15.4059 75.2292 15.0492C75.4606 14.691 75.5784 14.284 75.5784 13.8396C75.5784 13.3189 75.4127 12.8469 75.0854 12.4358V12.435ZM73.3604 10.9061C73.1598 11.0686 72.8667 11.1515 72.4906 11.1515H71.0856V9.29276H72.4906C72.865 9.29276 73.1566 9.37805 73.3572 9.54702C73.5497 9.70869 73.6431 9.9321 73.6431 10.2278C73.6431 10.5235 73.5505 10.7526 73.3604 10.9061ZM71.0856 12.6397H72.5938C72.9885 12.6397 73.2922 12.7356 73.5221 12.933C73.7421 13.1223 73.8493 13.3733 73.8493 13.7015C73.8493 14.0297 73.7503 14.2612 73.5456 14.4343C73.3336 14.6138 73.0291 14.7048 72.6393 14.7048H71.0856V12.6397Z" fill="white"/>
<path d="M82.2133 11.032C81.9518 10.5592 81.5815 10.1864 81.1121 9.92477C80.6435 9.66319 80.1018 9.53076 79.504 9.53076C78.9063 9.53076 78.324 9.66724 77.844 9.93614C77.3633 10.2058 76.9848 10.5933 76.72 11.0897C76.4553 11.5853 76.3213 12.1669 76.3213 12.8184C76.3213 13.47 76.4594 14.0524 76.7322 14.5472C77.0051 15.0427 77.3868 15.4327 77.8676 15.7056C78.3476 15.9786 78.8982 16.1167 79.5049 16.1167C80.2496 16.1167 80.8822 15.9274 81.3858 15.5545C81.8893 15.1816 82.2418 14.6958 82.4342 14.1117L82.448 14.0703H80.9748L80.9659 14.0882C80.6825 14.6625 80.1911 14.9534 79.504 14.9534C79.0257 14.9534 78.6164 14.8014 78.2875 14.5033C77.9667 14.2117 77.7823 13.8217 77.7393 13.3432H82.5569L82.5609 13.3164C82.5918 13.1239 82.6072 12.9062 82.6072 12.6698C82.6072 12.0556 82.4748 11.5048 82.2133 11.032ZM78.3102 11.1165C78.6237 10.8362 79.0062 10.6949 79.4464 10.6949C79.9329 10.6949 80.3462 10.8387 80.6751 11.123C80.9951 11.3992 81.1649 11.7705 81.1795 12.2254H77.7531C77.8181 11.7632 78.0057 11.3903 78.311 11.1173L78.3102 11.1165Z" fill="white"/>
<path d="M81.0686 7.9978H77.8599V8.75819H81.0686V7.9978Z" fill="white"/>
<path d="M101.912 8.11362C101.607 7.8301 101.455 7.47916 101.455 7.0616C101.455 6.64403 101.608 6.27764 101.912 5.99331C102.218 5.70979 102.611 5.56763 103.092 5.56763C103.574 5.56763 103.952 5.70979 104.256 5.99331C104.561 6.27683 104.713 6.63347 104.713 7.0616C104.713 7.48972 104.561 7.8301 104.256 8.11362C103.951 8.39714 103.563 8.5393 103.092 8.5393C102.621 8.5393 102.218 8.39714 101.912 8.11362ZM104.457 9.73999V18.4324H101.711V9.73999H104.457Z" fill="white"/>
<path d="M113.597 10.5986C114.196 11.2485 114.495 12.1405 114.495 13.2762V18.2788H111.887V13.6288C111.887 13.0561 111.738 12.6109 111.442 12.2941C111.145 11.9772 110.746 11.818 110.245 11.818C109.745 11.818 109.346 11.9764 109.049 12.2941C108.753 12.6109 108.604 13.0561 108.604 13.6288V18.2788H105.981V9.71559H108.604V10.8513C108.87 10.4727 109.228 10.1738 109.678 9.95361C110.128 9.73345 110.634 9.62378 111.196 9.62378C112.199 9.62378 112.999 9.94873 113.597 10.5986Z" fill="white"/>
<path d="M146.236 7.24559C146.244 7.25093 146.251 7.25633 146.259 7.26177L141.405 12.5112C140.62 13.3604 139.343 13.3604 138.559 12.5112L133.697 7.24819C133.801 7.17159 133.911 7.10495 134.028 7.05063C134.496 6.83284 134.983 6.83741 135.483 6.84211C135.561 6.84284 135.64 6.84358 135.718 6.84347C136.416 6.84265 137.114 6.84204 137.811 6.84143C138.509 6.84082 139.206 6.84021 139.904 6.8394C140.629 6.83899 141.354 6.83838 142.08 6.83777C142.805 6.83716 143.531 6.83655 144.256 6.83615L144.299 6.83612C144.973 6.83612 145.689 6.85829 146.236 7.24559Z" fill="white"/>
<path d="M132.577 10.1953C132.572 10.2819 132.568 10.3684 132.564 10.455V13.427C132.573 13.6318 132.584 13.8365 132.597 14.0411C132.637 14.6683 132.718 15.3398 132.986 15.8935L136.587 12.0002L132.991 8.11278C132.988 8.12022 132.984 8.12767 132.98 8.13513C132.677 8.77122 132.613 9.49181 132.577 10.1953Z" fill="white"/>
<path d="M146.225 16.7012C145.834 16.9517 145.36 17.0679 144.869 17.1208C144.524 17.1582 144.17 17.1647 143.832 17.1639C141.209 17.1623 138.586 17.1598 135.963 17.1574L135.909 17.1574C135.153 17.1566 134.336 17.1351 133.712 16.7354L137.334 12.8093L137.806 13.326C138.405 13.9743 139.195 14.2953 139.979 14.2953C140.769 14.2953 141.553 13.9743 142.152 13.326L142.629 12.8093L146.225 16.7012Z" fill="white"/>
<path d="M147.245 9.60473C147.195 9.12178 147.113 8.61083 146.93 8.16388L143.377 12.0002L146.945 15.8527C147.135 15.4291 147.204 14.9424 147.251 14.4741C147.414 12.8558 147.412 11.2222 147.245 9.60473Z" fill="white"/>
</svg>
