<svg width="72" height="63" viewBox="0 0 72 63" fill="none" xmlns="http://www.w3.org/2000/svg">
<path fill-rule="evenodd" clip-rule="evenodd" d="M57.2555 3.92405H62.2342V7.57572H67.2129V36.0833L70.6758 36.878C72.4109 37.2759 72.4524 39.6398 70.7323 40.094L36.566 49.1169C36.2715 49.1946 35.9607 49.1957 35.6657 49.1199L10.3188 42.5992V48.8085C11.0987 49.1143 11.6513 49.8756 11.6513 50.7665V50.9575C11.6513 51.731 11.2344 52.4063 10.6142 52.7711L11.6917 56.3174C11.7281 56.4373 11.7474 56.562 11.7493 56.6873L11.8211 61.4454C11.8323 62.1917 11.2327 62.8026 10.4889 62.8028H7.84322L7.77478 62.8013C7.07063 62.7655 6.5107 62.1811 6.51065 61.4657V56.6142C6.51068 56.4739 6.5329 56.3345 6.5761 56.2011L7.69474 52.7453C7.09852 52.3749 6.70108 51.7129 6.70102 50.9575V50.7665C6.70102 49.8755 7.25389 49.1142 8.03397 48.8085V42.0112L1.27871 40.2738C-0.447878 39.8296 -0.417823 37.4592 1.31948 37.0558L5.17022 36.1614V7.57572H10.149V3.92405H15.1277V0L16.7954 0.147072C21.5664 0.568653 29.8485 3.47561 36.1916 10.023C42.5346 3.47561 50.8167 0.568683 55.5878 0.147072L57.2555 0V3.92405ZM18.1915 27.9673C26.017 28.876 31.3747 33.2468 34.6597 36.5741V12.8561C29.4968 7.14266 22.662 4.2762 18.1915 3.4183V27.9673ZM54.1916 3.4183C49.7212 4.27621 42.8863 7.14269 37.7235 12.8561V36.5741C41.0084 33.2468 46.3662 28.876 54.1916 27.9673V3.4183ZM8.23406 35.5479C8.80538 35.4448 9.44366 35.3409 10.149 35.2433V10.6196H8.23406V35.5479ZM62.2342 35.2433C62.9394 35.3409 63.5778 35.4448 64.1491 35.5479V10.6196H62.2342V35.2433ZM13.2128 32.8507C15.2033 32.7558 17.5549 32.5787 20.5156 33.0211C22.7087 33.3488 25.2788 34.0076 28.4822 35.244C25.4609 33.0514 21.5476 31.1705 16.5695 30.8795L15.1277 30.7955V6.96792H13.2128V32.8507ZM57.2555 30.7955L55.8137 30.8795C50.8355 31.1705 46.9219 33.0514 43.9005 35.244C47.1041 34.0075 49.6744 33.3488 51.8676 33.0211C54.8282 32.5788 57.1798 32.7558 59.1704 32.8507V6.96792H57.2555V30.7955Z" fill="#45E6B3"/>
</svg>
