<svg width="4" height="4" viewBox="0 0 4 4" fill="none" xmlns="http://www.w3.org/2000/svg">
<g clip-path="url(#clip0_862_4558)">
<path opacity="0.3" d="M3.16634 2.8331H2.49972V2.58312H3.16634V2.8331ZM1.49978 1.24987H0.83316V2.49979H1.49978V2.24981H1.20814C1.13981 2.24981 1.08314 2.19314 1.08314 2.12481C1.08314 2.05649 1.13981 1.99982 1.20814 1.99982H1.49978V1.74984H1.20814C1.13981 1.74984 1.08314 1.69317 1.08314 1.62485C1.08314 1.55652 1.13981 1.49985 1.20814 1.49985H1.49978V1.24987Z" fill="#C5C8D1"/>
<path d="M1.83306 0.916586H1.3331V0.666602H1.41642C1.50808 0.666602 1.58308 0.591607 1.58308 0.499946C1.58308 0.408285 1.50808 0.33329 1.41642 0.33329H0.916456C0.824795 0.33329 0.7498 0.408285 0.7498 0.499946C0.7498 0.591607 0.824795 0.666602 0.916456 0.666602H0.999784V0.916586H0.499816C0.408155 0.916586 0.33316 0.991581 0.33316 1.08324C0.33316 1.1749 0.408155 1.2499 0.499816 1.2499V2.49982C0.499816 2.68314 0.649806 2.83313 0.833128 2.83313H0.999784V3.49976L1.3331 3.74974V2.83313H1.49975C1.68307 2.83313 1.83306 2.68314 1.83306 2.49982V1.2499C1.92473 1.2499 1.99972 1.1749 1.99972 1.08324C1.99972 0.991581 1.92473 0.916586 1.83306 0.916586ZM1.49975 1.49988H1.2081C1.13977 1.49988 1.08311 1.55655 1.08311 1.62487C1.08311 1.6932 1.13977 1.74987 1.2081 1.74987H1.49975V1.99985H1.2081C1.13977 1.99985 1.08311 2.05651 1.08311 2.12484C1.08311 2.19317 1.13977 2.24983 1.2081 2.24983H1.49975V2.49982H0.833128V1.2499H1.49975V1.49988ZM3.24964 1.74987V1.66654C3.3413 1.66654 3.4163 1.59154 3.4163 1.49988C3.4163 1.40822 3.3413 1.33323 3.24964 1.33323H2.41636C2.3247 1.33323 2.2497 1.40822 2.2497 1.49988C2.2497 1.59154 2.3247 1.66654 2.41636 1.66654V1.74987C2.41636 1.83319 2.16638 1.94319 2.16638 2.24983V3.3331C2.16638 3.51642 2.31637 3.66641 2.49969 3.66641H3.16631C3.34963 3.66641 3.49962 3.51642 3.49962 3.3331V2.24983C3.49962 1.94319 3.24964 1.83319 3.24964 1.74987ZM2.74967 1.74987V1.66654H2.91633V1.74987C2.91633 2.01652 3.16631 2.08318 3.16631 2.24983V2.33316H2.49969C2.49969 2.29816 2.49969 2.26817 2.49969 2.24983C2.49969 2.08318 2.74967 2.01652 2.74967 1.74987ZM3.16631 2.58315V2.83313H2.49969C2.49969 2.74814 2.49969 2.66314 2.49969 2.58315H3.16631ZM2.49969 3.3331C2.49969 3.3331 2.49969 3.22811 2.49969 3.08311H3.16631V3.3331H2.49969Z" fill="#C5C8D1"/>
</g>
<defs>
<clipPath id="clip0_862_4558">
<rect width="3.74586" height="3.74586" fill="white" transform="scale(1.06778)"/>
</clipPath>
</defs>
</svg>
